<svg version="1.0" xmlns="http://www.w3.org/2000/svg" width="805.333" height="805.333" viewBox="0 0 604 604"><path d="M341.8 2.3c-1.7 1.6-2.3 2.9-1.8 3.7.7 1.1 1.1 1.1 2.5 0 1.5-1.2 1.6-1.1.9 1.4l-.7 2.8 3.2-1.7c1.8-.9 3.4-2.2 3.7-3 .3-.8 1.5-1.7 2.6-2.1 2.8-.8 1.1-2.2-3.7-2.9-3.4-.6-4.4-.3-6.7 1.8zM264.2 10.6c1.9 3.3 8.2 7.3 9.5 6 .8-.8-1.7-7.3-3.3-8.7-1.2-.9-2-1-3.3-.2-1.1.7-2.3.8-3.4.1-1.4-.7-1.3-.2.5 2.8zM276.4 32.5c0 2.5.5 3.7 1.8 4.1 2.6.8 2.2 2.3-.4 1.6-1.4-.3-1.9-.2-1.4.7.4.6 1 2.4 1.3 3.9.3 1.5.6 3.1.7 3.7.1.5.7 2 1.4 3.1 1.3 2.5.9 3.1-3.6 4.9-2.9 1.3-3.2 1.7-2.6 4.2 1 4.4 2.1 4.9 5 2.2 1.4-1.3 3.1-2.4 3.7-2.5.7 0 2.9-.2 5-.2 3.1-.2 3.9-.7 4.8-2.8.5-1.5 2.3-4.4 3.9-6.4 1.7-2.1 3-4.1 3-4.5 0-.7-3.1-.2-6.3 1.1-1.1.4-2.4-1.2-4.6-5.3-5.9-11-11.7-14.9-11.7-7.8zM305.8 30.2c-.9 2.5 1.5 9.3 4.8 14l3.3 4.6-2.2 1.5c-2.2 1.4-2.2 1.5-.3 3.6 2.1 2.4 3.6 2.7 3.6.8 0-.6.4-1.8.9-2.6.7-1.1 1.3-1.1 3.2.3 1.3.9 4.1 1.6 6.2 1.6 5.2 0 5.8-2.2 1.8-6.4-3.7-3.8-3.8-4.4-.8-5.6 1.8-.7 1.9-.9.3-.9-1.2-.1-1.6-.6-1.2-1.6.7-1.8.7-1.8-3.3-.4-3.1 1.1-3.5.9-7.4-2.8-7.3-6.8-8.4-7.6-8.9-6.1zM331.7 30.4c-.4.9.2 1.6 1.8 2 3.2.8 3.7 3 1.4 5.9-2 2.6-2.5 4.7-1 4.7 1.8 0 7.7-2.4 10.3-4.2 2.2-1.5 3.2-1.7 4.8-.8 2 1.1 2.6.4 1.2-1.5-2.1-2.9-5.8-4.9-10-5.5-2.6-.4-5.4-1-6.3-1.4-1-.5-1.9-.2-2.2.8zM254.3 32c-1.3.5-2.3 1.8-2.3 2.9 0 1.2-1.1 2.3-2.9 2.9-2.3.8-2.8 1.5-2.4 3.1.6 2.5.6 2.5 4.3.6 2.8-1.4 3-1.4 3 .3 0 2.6 6.8 10.2 9.1 10.2 1.5 0 1.9-.5 1.5-1.8-.3-.9-1-3.6-1.5-6s-1.2-4.6-1.5-4.9c-.3-.3.9-1.7 2.6-3l3.2-2.3h-3.2c-2 0-3.5-.6-3.8-1.5-.7-1.7-2.8-1.8-6.1-.5zM379 32.3c0 .8.6 2 1.4 2.7.8.6 1.2 1.8.9 2.6-.9 2.5 2.2 1.5 5.2-1.6 2.6-2.8 2.4-4.5-.3-1.8-.9.9-1.6.8-2.9-.4-3-2.6-4.3-3-4.3-1.5zM202.5 34.1c-3.8 3-4.5 3.9-4.5 6.6 0 2-.4 2.2-3.1 1.6-2.8-.5-3-.4-2.7 1.8.2 2 .8 2.3 3.1 2.1 2.2-.2 2.7.1 2.7 2 .1 2.4 5.2 8.8 7 8.8.5 0 1-2.3 1-5 0-4.7.2-5 2.5-5 3.2 0 3.2-1.4.1-2.8-2.2-1-2.5-1.9-2.8-6.8l-.3-5.6-3 2.3zM229.9 39.2c-.1.7-.1 1.7 0 2.1.1.5-.3.6-.9.2-.9-.5-1.2.1-.9 2.1 0 .4-.5 1.1-1.3 1.5-1 .7-1 .9.2.9.9.1.7.5-.6 1-1.9.7-2.1 1.5-1.9 5.7.2 2.6.7 5.8 1 6.9.6 1.9.3 2.1-1.9 1.7-3.4-.7-6 .3-4.9 1.9.4.7.8 2 .8 2.8 0 2.2 4.6 7.7 7.1 8.4 1.9.6 2.3.2 2.8-2.8l.7-3.4 5.2 3.4c2.9 1.9 5.7 3.8 6.2 4.2.6.4 1.8.6 2.9.4 1-.2 2.2.2 2.7 1 .7 1 .9 1 .9-.2 0-1.3.1-1.3 1 0 .8 1.2 1 1.2 1.1-.5 0-1.1.3-1.4.6-.8.2.7 1.3 1.3 2.4 1.3 3.5 0 2-3.6-4.2-10.1l-6-6.3 2-4.9c1.2-2.8 1.9-5.3 1.6-5.6-.3-.3-1.9.3-3.4 1.2-1.6.9-3.3 1.7-3.9 1.7-.5 0-2.4-3.4-4.2-7.5-3.1-7-4.8-9.2-5.1-6.3zM369 44c0 .5.5 1.2 1 1.5 1.8 1.1 1 2.4-1.4 2.2-3.2-.3-3.5 1.6-.4 2.4l2.3.5-2.5.9-2.5.8 3 .9c5.5 1.6 15.7-1 11.1-2.8-.9-.3-1.6-1.2-1.6-2 0-1.4-1.9-2.6-6.4-4.4-1.5-.5-2.6-.6-2.6 0zM344.5 48l-3 .7 3.2 1.2c2.7 1.1 3.2 1.9 3.5 4.9.4 5.1 2.3 5 4.4-.2 1.1-2.7 2.7-4.7 3.9-5 1.7-.5 1.8-.8.5-1.6-1.7-1.1-8-1.1-12.5 0zM429.4 53.4c-.4.9 0 3.5.9 5.6 1.4 3.7 1.4 4-.4 4.5-3.3 1.1-2 2.3 2.2 2.2 3.1-.2 4.5-.8 5.7-2.5 1.3-2 1.3-2.2-.2-2.2-.9 0-1.6-.8-1.6-1.8s-1.3-3.1-3-4.7c-2.6-2.5-3-2.6-3.6-1.1zM332.2 54.2c-.7.7-1.2 1.8-1.2 2.5 0 .8-1.1 1.8-2.5 2.3-3.8 1.4-3.1 3.2.9 2.5 2.7-.5 3.5-.3 4 1.2 1.3 3.3 5.1 8.3 6.4 8.3 1.6 0 1.7-10.1 0-11.8-.9-.9-.3-1.5 2.3-2.6 1.9-.9 3-1.6 2.4-1.6-.5-.1-2.4-.3-4-.4-1.7-.2-4-.6-5.1-1-1.1-.3-2.5-.1-3.2.6zM398.6 56.2c-2 2.9-2 4.8 0 4.8 1.2 0 1.4.7 1 2.7-.7 3.3.5 8.5 2.1 9 .6.2 1.8-1.4 2.7-3.7 1.5-3.7 2.5-4.4 6.4-4.3 1.7.1 1.5-1.2-.3-2.7-1.4-1.2-1.2-1.7 1.7-4.7l3.2-3.3h-3.8c-2 0-4.7.5-5.9 1.1-1.6.9-2.2.9-2.5 0-.6-1.8-3-1.3-4.6 1.1zM358.1 56.9c-.7 1.3-1.4 4.2-1.4 6.4-.2 3.5-.6 4.2-2.7 4.7-1.4.3-2.6 1.4-2.8 2.4-.3 1.6.1 1.7 3.6 1.1 3.6-.6 4-.4 5.1 2.2 1.5 3.7 7.8 10.3 9.8 10.3 1.3 0 1.5-.8 1-4.8-.3-2.6-.9-6.1-1.3-7.9-.6-2.8-.3-3.4 2-4.4 3-1.4 2.5-2.9-1-2.9-1.8 0-3.9-1.5-6.8-4.7-4.3-4.7-4.3-4.7-5.5-2.4zM381.7 62.7c-.3.4-.2 2.7.3 5.1.6 3.3.4 4.2-.6 4.2-.8 0-1.4.6-1.4 1.3 0 .7 1.4 1.3 3.8 1.3 2.8.1 4.2-.4 5.6-2.3 1.8-2.4 1.8-2.4-.3-3-1.2-.3-2.1-1.1-2.1-1.7 0-1.7-4.7-6-5.3-4.9zM319.5 66.9c-.9 1.1-1.5 2.8-1.3 3.9.2 1.1-.5 2.9-1.6 4.1-1.5 1.7-1.7 2.3-.6 3.6 1.1 1.4 1.4 1.3 2.7-.4 1.3-1.9 1.4-1.9 5.6.5 3.8 2.1 9.7 3.3 9.7 1.8 0-.6-6.1-8.6-7.2-9.5-.5-.3-.1-1.4.7-2.5 2-2.7 1.8-3.7-.5-2.4-1.4.7-2.6.7-3.9.1-1.4-.8-2.2-.6-3.6.8zM145 66.9c0 .4 1.6 2.2 3.5 4.1 3.4 3.3 4.5 6 2.4 6-.5 0-.7.4-.4 1 1.5 2.4 4.1 1 8.8-4.6 1.7-2.1 1.7-2.1-.7-1.7-1.6.3-4.5-.6-8-2.5-3.1-1.7-5.6-2.7-5.6-2.3zM454.3 68.4c1 .8 2.2 2.7 2.6 4.2 1 3.9 3 4.2 3.7.5.4-1.7 1.3-3.1 2-3.1 1.9 0 1.8-1.6-.2-2.4-.9-.3-3.4-.6-5.7-.6-3.8.1-4 .2-2.4 1.4zM163.6 69.5c-1.1.8-1.5 1.5-1 1.5.6 0 1.9-.7 3-1.5 1-.8 1.5-1.4.9-1.4-.5 0-1.9.6-2.9 1.4zM172.9 68.2c0 .2-.3 1.5-.5 2.9-.4 2.5-.1 2.7 4.8 3.5l5.3.9.6 7.9c.3 4.9 1 8.1 1.7 8.4.7.2 1 .8.6 1.3-.3.5-.1.9.5.9.5 0 1.6.7 2.4 1.5 1.4 1.3 1.9.6 5.1-5.6 2-3.9 3.6-8.1 3.6-9.4 0-1.8.7-2.4 3.5-2.9 2-.4 4.4-.2 5.6.4 1.1.7 2.3.9 2.6.7.5-.6-6.7-5.7-8.1-5.7-.5 0-1.4-.8-2.1-1.7-1.6-2.2-13.3-3.2-14.5-1.3-.7 1.1-1.7 1-5.2-.3-4.2-1.6-5.7-2-5.9-1.5zM290 69.6c0 .4.8 1.2 1.7 1.9 1.5 1.1 1.5 1.3-.5 2.4-1.2.6-2.2 1.6-2.2 2.1 0 1.4 7.9.5 12.3-1.3 3.9-1.7 4.2-3.7.6-3.7-1 0-1.9-.5-1.9-1 0-.6-2.2-1-5-1-2.7 0-5 .3-5 .6zM279 72c-1.4.8-2 12.2-1 16.5.4 1.6-.2 2.2-2.7 3-1.8.5-3.3 1.3-3.3 1.8 0 1.7 2.7 3.5 4.1 2.7 1.6-.9 13.6-2.5 16.2-2.1 1.9.3 2.3-1.5.5-2.3-.9-.3-.7-.8.6-1.7 1.5-.9 1.6-1.3.5-2-.8-.5-2.4-.9-3.5-.9-1.6 0-3-1.8-6.1-7.9-2.9-5.8-4.3-7.7-5.3-7.1zM423 75.8c-1.9.9-3.7 2.6-3.9 3.7-.4 2.4-1.9 3.5-4.9 3.5-2 0-2.2.4-1.6 2.2 1 3.3 1.2 3.4 4.3 1.5 3.6-2.1 4.1-2.1 4.1 0 0 1.7 5.7 11.2 6.9 11.5.3 0 1.9.2 3.4.3 2.2.2 2.7-.1 2.1-1.4-.3-.9-.9-4.1-1.4-7.1-.4-3-.9-6.2-1.1-7-.3-.9.9-1.8 3.1-2.6 3.5-1.3 2.8-1.8-2.2-1.4-2.2.1-2.9-.4-3.4-2.4-.7-3.1-.9-3.1-5.4-.8zM260.3 80.6c-5.1 3-5.6 4.9-1.2 3.9 3.1-.7 3.2-.7 2.6 2.3-.9 4.5.9 4.8 4.3 1 1.6-1.8 4.1-4.5 5.5-5.9l2.5-2.7-2.3-.6c-4.2-1.1-7.2-.6-11.4 2zM393.7 83.1c.4 2.8.2 4.4-.7 4.9-.8.5-1 1.5-.5 2.6.5 1.3.9 1.5 1.2.6.7-1.9 2.3-1.4 4.5 1.3 1.1 1.4 2.4 2.3 2.9 2 1.1-.7.8-10.5-.3-10.5-.4 0-1.8-1.1-3.2-2.5-3.5-3.5-4.5-3.1-3.9 1.6zM376 81.8c0 .4.5 1.3 1.1 1.9.7.7.8 1.7.3 2.5-1.1 1.7-1.4 3.8-.6 3.8.9 0 7.2-4.4 7.2-5 0-.8-5.6-4-6.9-4-.6 0-1.1.4-1.1.8zM298 85.1c0 1.3.8 2.3 2.1 2.6 1.4.4 1.7.8.8 1.3-.9.6-.7 1.7 1 4.5 2 3.4 2 3.9.6 5.5-.8.9-1.5 2.4-1.5 3.3 0 2.2 1.9 3.1 2.6 1.2.4-.9 2.3-2.4 4.3-3.4 2.9-1.5 3.9-2.8 4.8-6.2 1.3-4.9 1-5.8-1.2-3.9-1.4 1.1-2.2.7-5.8-2.8-4.7-4.6-7.7-5.4-7.7-2.1zM342.8 83.9c-.7.2-2.2 1.1-3.3 2.1-1.1 1-3 2.1-4.2 2.5-3.5 1-3 3.6.5 2.9 2.6-.5 2.9-.3 4.1 3.7l1.3 4.3 1.9-2.5c1-1.3 2.4-4.1 3.1-6.2.6-2 1.4-3.7 1.8-3.7.3 0 1.5-.6 2.5-1.4 1.7-1.2 1.5-1.4-2.2-1.7-2.3-.3-4.8-.3-5.5 0zM223 86c0 .6-1 .8-2.4.4-1.8-.4-2.5-.1-2.9 1.5-.4 1.8 0 2.1 2.6 2.2 1.8.1 2.5.3 1.5.6-.9.2-1.9 1.1-2.2 1.9-.8 2.1 8.7 2 10.5-.2.8-1 2.1-1.3 3.8-.9l2.6.5-2.2-1.9c-1.3-1.1-2.3-2.4-2.3-2.9 0-1.1-3.3-2.2-6.7-2.2-1.3 0-2.3.5-2.3 1zM321.9 87.7c-.1 1.6 0 3.8 0 4.9.1 1.2-.5 2.4-1.3 2.7-.9.4-1.6 1.1-1.6 1.6 0 .6.7.8 1.4.5.8-.3 2.5.4 3.7 1.5 3 2.8 3.9 2.6 3.9-.7 0-1.5.5-3.3 1.2-4 .9-.9.9-1.2-.2-1.2-.8 0-2.3-1.8-3.2-4-1.9-4.6-3.8-5.2-3.9-1.3zM242 89.2c4.6 7 4.7 7.8 1.6 10.3-3.7 2.9-2.1 3.8 4.3 2.4 5-1.1 10.2-4.4 12-7.8.8-1.5.5-1.6-2.5-1.3-2.1.3-3.4 0-3.4-.7 0-1.4-9.6-6.1-12.3-6.1-1.8 0-1.8.2.3 3.2zM139 90.4c-1.9.7-5.1 2.2-7 3.4-1.9 1.2-4.3 2.2-5.2 2.2-2.2 0-2.9 1.2-1.8 3 .7 1.2 1.3 1.2 3.3.1 3.3-1.8 6.1-1 6.5 1.7.2 1.2.8 2.2 1.3 2.2s.9 1 .9 2.3c0 1.3.7 3.2 1.5 4.3 1.3 1.6 1.6 1.7 2.5.4 1.7-2.5 5-13.9 4.4-15.4-.4-1 .7-1.9 3.1-2.7 2.9-1.1 3.3-1.5 1.8-2-2.8-1.2-7.5-.9-11.3.5zM363.7 90.8c-1 1-1.7 2.6-1.7 3.5 0 .9-1.3 2.3-3 2.9-2.1.9-2.7 1.7-2.1 2.7.6 1 1.3 1.1 2.9.2 3.2-1.7 4.9-1.3 5.6 1.4.7 2.9 7.3 10.5 9 10.5 1.5 0 .9-12.9-.7-14.8-1.1-1.4 1.5-4 4.3-4.3.8-.1-1-.5-4-1s-5.9-1.4-6.4-1.9c-1.4-1.4-2.1-1.3-3.9.8zM456.6 91.5c-2 1.4-4.6 2.5-5.6 2.5-2.2 0-2.4.7-1.1 2.9.6 1 1.3 1.1 2.9.2 2.9-1.5 3-1.5 4.7 1.9 1.4 2.8 6 6 6.9 4.9.2-.2 0-2.7-.3-5.4-.6-4.6-.4-5.2 1.9-6.7l2.5-1.8h-2.7c-1.4 0-3.3-.2-4-.5-.8-.3-3.1.6-5.2 2zM205.9 92.7c-1.6.7-3.7 1.9-4.5 2.8-.9.8-2.4 1.5-3.5 1.5-1.3 0-1.9.7-1.9 2.1 0 1.6.4 1.9 1.8 1.4 4.4-1.8 5-1.7 6.8 2.2 1.7 3.4 6.7 7.5 7.7 6.3.2-.3.1-3.1-.3-6.3-.6-5.6-.5-5.9 2.3-8.2l3-2.3-4.2-.4c-2.3-.2-5.6.2-7.2.9zM387.7 96.6c-1 1.1 1.3 4.4 3 4.4 1.3 0 1.4.3.5 1.2-.8.8-.4 2 1.8 4.8 2.6 3.3 2.8 3.9 1.4 5-.8.7-1.4 2.3-1.2 3.4.4 2.8 3.4 3.3 4.1.7.3-1.2 1.8-2.8 3.4-3.8 2.4-1.3 3.1-2.6 3.9-7 1.1-5.7.9-6.1-1.6-3.8-1.6 1.4-2.2 1.2-7-2-5.1-3.4-7.1-4.1-8.3-2.9zM268 98.7c-5 .8-9 2.5-9 3.8 0 .8 1.3 1.5 3.3 1.7 4.2.4 3.8 2-.7 3.2-2.5.7-3.6 1.5-3.6 2.8 0 2 2.1 2.3 5.1.7 1.2-.6 2.7-.8 3.6-.5 1.2.5 1.1 1-.8 2.5-1.3 1.1-2 2.3-1.6 2.7 1.1 1.2 13.9-5.6 14.4-7.6.2-.8 1.7-2.4 3.3-3.5 2.9-1.9 2.9-2 .7-2.8-1.2-.4-3.2-.5-4.5-.2-1.4.3-2.1.2-1.8-.4 1.1-1.7-3.9-3.1-8.4-2.4zM175.7 102.1c-5.7 1.3-8.3 2.9-6.6 4 .8.5 2.4.9 3.7.9 3.2 0 2.8 2.8-.5 3.6-4.9 1-5.2 1.2-4.6 3.4.4 1.5 1 1.9 2.2 1.4 2.6-1.1 7.1-1.7 7.1-.9 0 .4-1 1.5-2.2 2.5-4 3.2-1.1 3.3 5.6.2 3.7-1.7 7.2-4.2 8.2-5.7 1-1.6 3.2-3.6 4.9-4.6 3-1.9 3-1.9.5-2-1.4-.1-3.5 0-4.7.1-1.4.1-2.3-.4-2.3-1.3 0-2.5-4.6-3.2-11.3-1.6zM419.8 105.2c-2.5 2.4-4.7 4.9-5 5.7-.3 1.1-.8 1.1-2.5.3-1.6-.9-2.4-.8-3.3.3-1 1.2-.7 1.5 1.4 2.1 2.3.6 2.5.9 2 4.8-.5 3.2-.2 4.7 1.3 6.5l2 2.4 2.4-5.1c2.2-4.7 3.7-5.9 7.2-5.3 1.5.2.6-1.9-1.4-2.9-1.4-.8-1.7-1.5-1.1-2.3.5-.7 1.5-2.9 2.2-5 1.9-6 0-6.5-5.2-1.5zM288 103.9c0 .5.7 1.2 1.6 1.5 2.3.9.8 2.4-1.9 1.9-1.6-.3-2.6.1-3 1.1-.5 1.2 0 1.6 2.1 1.6 2.4.1 2.5.2 1 1.4-4.1 3.1 2.9 3.5 11.1.7 4.4-1.6 5-2 3.2-2.6-1.1-.3-2.6-1.5-3.1-2.5-1.4-2.6-11-5.3-11-3.1zM432.7 104.4c-.4 1.1.1 1.8 1.9 2.2 2.2.6 2.5 1.1 1.9 3.3-.4 1.4-1.1 2.9-1.7 3.2-.5.4-.8 1.4-.6 2.2.3 1.4 1.1 1.3 6.3-.9 3.5-1.4 7-2.2 8.3-1.9 2 .5 2.2.3 1.3-1.2-1.7-3.3-4.7-5.3-9.2-6.2-2.4-.5-5.1-1.2-6-1.5-1-.5-1.9-.1-2.2.8zM311 107.5c0 .9 1 1.5 2.4 1.5 3.4 0 3.8 1.1 2.4 6.9-.6 2.8-.9 5.4-.5 5.7.7.8 9.3-5.1 10.5-7.3.7-1.1 1.9-1.4 4-1.1 2.8.4 3 .2 1.9-1.1-2.5-3.2-6-4.5-15.4-5.5-4.2-.4-5.3-.2-5.3.9zM227.5 108.9c-4 1.9-4 1.9-1.5 2.9 2.7 1.1 2.5 1.2-2.8 2.8-2.8.8.1 2.5 3.1 1.8l3.2-.6-2 2.2-2 2.3 2.5-.8c3.8-1.2 9.2-4.1 12.5-6.9l3-2.5-2.5-.2c-1.4-.1-3.1-.2-3.7-.2-.7.1-1.1-.3-.8-.7.5-.8-1.8-2-3.8-2-.7 0-3 .9-5.2 1.9zM339 108.7c0 .7.9 1.3 2 1.3 1.8 0 2 .4 1.4 4-.8 4.8.1 5 4.4 1 1.9-1.7 4.5-3 6-3l2.7-.1-3-2.4c-2.4-2-3.9-2.4-8.2-2.2-3.5.1-5.3.6-5.3 1.4zM197 111.8c0 .5 1.1 1.9 2.5 3.2 2 1.9 2.3 2.6 1.2 3.8-1 1.3-.8 1.4 2.2.9 1.8-.4 4.9-.7 6.7-.7 1.9 0 3.4-.3 3.4-.8 0-.9-4.9-3.2-6.7-3.2-.8 0-3.2-.9-5.3-2-2.2-1.1-4-1.7-4-1.2zM243 115c0 .6.7 1.3 1.5 1.6.8.4 1.5 1.7 1.5 2.9 0 1.3.4 2.5 1 2.7.6.2.6 1.6-.1 4.1-1.6 6-.5 6.5 2.4 1.3 1.5-2.7 2.7-5.2 2.7-5.6 0-1-7.2-8-8.2-8-.4 0-.8.5-.8 1zM257.4 115.4c-.4 1-.2 3.4.5 5.4.9 3.2.8 3.9-.6 4.9-.9.7-1.4 1.5-1.2 1.7 1 1.1 8.4-1.4 10.3-3.5l2.1-2.2-2.2.6c-1.5.3-2.4 0-2.8-1.2-.3-.9-1.7-2.9-3-4.6-2.1-2.6-2.5-2.7-3.1-1.1zM131 119.1c0 .6-.5.9-1.2.7-.6-.2-2.5 1-4 2.8-2.2 2.4-2.8 4.1-2.6 6.8.2 3.5-2.3 6.7-6.4 8.1-2.2.8-2.2 1.4.1 4.2 2.5 3 3.1 2.9 6.9-1l3.2-3.3 5.6 5.3c3.1 2.9 6.2 5.3 6.9 5.3.7 0 1.5.5 1.7 1.1.5 1.4 8.8 2.5 8.8 1.1 0-.6.7-.9 1.5-.6 2.1.8 1.9-.6-.4-3-1.1-1.2-3.2-4.6-4.7-7.6-1.4-3-3.5-6.5-4.6-7.7-2-2.1-2-2.1.4-5.5 1.2-1.8 3-3.8 3.8-4.5 1.3-1.1 1.3-1.2 0-1.2-.8 0-3.3.6-5.5 1.4-2.4.9-4.1 1.1-4.3.5-.2-.6-1-1-1.8-1s-1.4-.7-1.4-1.5-.4-1.5-1-1.5c-.5 0-1 .5-1 1.1zM432 121c-1.1 1.1-2.4 2-3 2-.5 0-1 .7-1 1.6 0 1.1.6 1.3 1.9.9 1.4-.4 2.4.3 4.1 3 3.2 5.1 5.3 4.7 4.5-.9-.6-3.6-.4-4.6 1.2-5.5 1.7-1 1.7-1-.4-1.1-1.2 0-2.5-.5-2.8-1-.9-1.5-2.3-1.2-4.5 1zM459.3 120.5c-.6 1.1-.8 2.6-.5 3.4.2.7-.2 1.7-.9 2.2-1.9 1.1.1 4.4 2.7 4.5 1.1.1 2.1.2 2.4.4 1.2.6 5 .7 5 .1 0-.4-.7-1.6-1.5-2.7-.8-1-1.5-2.7-1.5-3.7 0-.9-.6-1.7-1.3-1.7-.8 0-1.8-1-2.4-2.2-1-2.2-1-2.2-2-.3zM174.5 122.3c-.9 3.5.8 8.8 4.5 14.4l3.2 4.7-2.8 2.3-2.8 2.2 2.4 2.1 2.4 2.1 1.3-2.6c1.4-2.6 2.8-3.2 3.8-1.5 1.1 1.8 8.7 3.3 11.2 2.1 2.7-1.2 2.3-2.7-2.1-7.4-3.2-3.4-3.3-5.7-.5-5.7 1.7 0 1.9-.3 1-1.3-.6-.8-.8-1.7-.4-2 1-1.1-1.7-.8-3.9.4-1.7.9-2.7.5-6.7-3.3-2.5-2.4-5.8-5.4-7.3-6.7l-2.7-2.4-.6 2.6zM286.5 120.7c-3.9.8-7.5 2.6-7.5 3.5 0 .6.9.8 2 .5 1.7-.4 1.8-.2.9 1.4-.6 1.3-2.1 1.9-4.4 1.9-6 0-8.7 2.2-4.4 3.5 1.9.7 2 .8.3 2.6-2.7 3-.8 3.5 4.1 1.1 2.5-1.2 4.8-2.2 5-2.2 1.2 0 .3 3-1.2 4.6-1.6 1.6-2.7 5.4-1.6 5.4.3 0 2.9-.7 5.8-1.5 6.7-2 11.9-5.4 12.3-8.1.3-2.1 5.7-5.4 9-5.4 3.3-.1-3.1-4-6.6-4-2.9 0-3.2-.3-2.7-2 .6-1.8.2-2-4.2-1.9-2.6.1-5.7.3-6.8.6zM483.2 124.2c.1 1.8.5 4.1 1 5 .6 1.3.3 2-1.3 2.9-3.7 2-.7 3 5.3 1.7 4.4-.9 5.6-1.6 5.5-3-.1-1-.9-1.8-1.8-1.8s-2.9-1.8-4.4-4c-3.4-4.8-4.6-5.1-4.3-.8zM205.4 123.4c-4.5 2-4.9 3.3-1.3 4.1 2.4.6 3.6.3 5.1-1.3 1.1-1.1 1.7-2.5 1.4-3.1-.9-1.4-1.4-1.3-5.2.3zM223 125.5c0 3.6 2.6 9.5 5.6 12.6l2.6 2.7-2.7 2.4c-2.3 2.2-2.5 2.6-1 3.8 1.3 1.1 1.9 1 3.9-.9 2.2-2.1 2.3-2.1 4-.2 2.3 2.6 10.3 4.5 12.6 3.1 1.5-.9-1.4-5.6-5.7-8.9-2.4-2-2.5-2.2-.9-4.6 1.6-2.4 1.6-2.6 0-3.2-.9-.3-2.4-.1-3.4.5-1.4.8-2.6.2-6.6-3.5-6.9-6.4-8.4-7-8.4-3.8zM506.7 127.7c.6 1.6.5 1.6-1 .4-1-.8-2.1-1.1-2.5-.7-.4.4.2 1.4 1.2 2.2 2 1.4 2 1.4 0 1.4-3.2.1 2.5 2.9 5.9 3 2.5 0 2.8-.3 2.2-2.3-.7-2.2-4-5.7-5.6-5.7-.5 0-.5.8-.2 1.7zM156 132.1c0 1.6 2.7 6.4 4.4 7.9 1.5 1.1 1.5 1.4 0 2.4-1.4 1.1-1.4 1.3 0 2.5 1.3 1.1 1.7 1.1 2.1-.1.4-.9 1.6-1.3 3.4-1 3.3.5 4.8-1.2 3.1-3.3-.7-.8-1-2.4-.7-3.6.5-1.8.2-2-1.8-1.5-1.4.4-2.7 0-3.4-.8-1.6-1.9-7.1-3.8-7.1-2.5zM255.7 132.8c-3.6 1.6-4.6 4-1.3 3.4 1-.2 2 .8 2.7 2.5l1.1 2.8 1.4-3.3c.8-1.8 1.2-3.7.9-4.3-.4-.5.1-.9 1-.9s1.3-.5 1-1c-.8-1.4-2.3-1.2-6.8.8zM201 134.9c0 .5 1.6 1.9 3.4 3.1 2.2 1.3 3.3 2.6 2.9 3.6-.9 2.5 2.2 1.5 5.2-1.6l2.9-3.1-2.9.2c-1.7.1-4.7-.5-6.9-1.4-4.5-2-4.6-2-4.6-.8zM445.6 134.7c-.3.3-.6 2.6-.6 5 0 3-.5 4.5-1.5 4.9-2 .8-1.9 2.4 0 2.4.9 0 2.9 1 4.5 2.2 1.6 1.2 3.1 2 3.4 1.7.2-.2.6-2.3.9-4.7.4-3.1.2-4.2-.8-4.2-.7 0-1.9-1.6-2.5-3.5-1.2-3.6-2.3-4.9-3.4-3.8zM467.4 142.2c-.3.4.1 1 .8 1.3.9.4 1.3 1.7 1 4-.5 4.1.9 4.6 2.8 1 .7-1.4 2.1-2.5 3.1-2.5 1.5 0 1.5-.3.6-2.5-1-1.9-1.9-2.4-4.5-2.3-1.8.1-3.5.5-3.8 1zM204.8 149.8c-5.9 2.9-7.5 4.1-6.8 5.2.7 1.1 1.3 1.2 3.5.2 4.2-1.9 3.7-2.5 8.5 9.5.5 1.3 1.4 2.3 1.9 2.3 1.2 0 5.1-10.3 5.1-13.4 0-1.4.9-2.8 2.5-3.6 3.1-1.7 3.2-2.6.3-3.4-4.4-1.1-7.4-.5-15 3.2zM110 149.2c-2.3.9-2.4 1.1-.6 1.7 1.9.7 1.9.8-.3 1.4-1.3.3-2 1-1.7 1.6.4.6 1.4.7 2.3.4 1.1-.4 1.4-.3.9.5-1.3 2.2 2.1 1.2 4.9-1.4l2.8-2.5-2.8-1.5c-1.5-.8-2.8-1.4-2.9-1.3 0 0-1.2.5-2.6 1.1zM175.7 155.7c-2.4 2.6-3.1 2.8-11.1 2.8-7.6 0-8.6.2-8.6 1.8 0 2.8 5 9.5 8.2 10.9 3 1.4 3 1.6.6 7.6-1.1 2.8-1.1 3.4.2 4.2 2.3 1.5 2.7 1.3 4.3-2.9.9-2.2 2-4.2 2.5-4.5.5-.3 3.1.2 5.8 1 6.4 1.9 17.3 1.2 19.1-1.2 1.8-2.5-.2-4.4-9.8-9l-7.9-3.9.5-4.8c.3-2.6.2-4.7-.3-4.7-.4 0-2 1.2-3.5 2.7zM243.5 153.7c-1.1.3-4 1.3-6.5 2.3-2.5 1-5.7 2.1-7.2 2.4-2 .5-2.5 1-2.1 2.6.5 1.8 1.1 2 4.7 1.5 5.8-.9 9.6.7 8.8 3.7-.3 1.3-1.3 3.4-2.3 4.8-1 1.4-1.9 3.4-2.1 4.5-.8 5.5 11.3.6 18.3-7.4 4.4-4.9 10-7.6 13.7-6.5.9.3.4-.6-1.3-2-1.6-1.4-3.4-2.6-3.8-2.6-.4 0-2.7-.9-4.9-2-4-1.9-10.5-2.4-15.3-1.3zM123.4 164.2c-.4.6 0 1.6.9 2.3.9.7 1.4 1.5 1 1.8-.3.4.2 1.6 1.2 2.7 1.3 1.5 1.5 2.3.7 3.3-.9 1-.9 1.6 0 2.5 1.5 1.5 6.3-3.5 7.3-7.6.6-3.1-.6-4.5-2-2.2-.4.6-2 0-3.9-1.5-3.7-2.8-4.2-3-5.2-1.3zM214.7 167.7c-.4.6.7 2.3 2.3 3.8 3.4 3.3 3.7 5 1.3 6.5-1.7.9-1.7 1.1-.1 2 1 .6 1.4 1.8 1.1 3.2-.5 1.9.3 1.5 4-2.1 4.2-4 7.7-9.4 7.7-11.8 0-.5-1.5-1-3.2-1-1.8 0-5.4-.3-7.9-.8-2.8-.4-4.9-.4-5.2.2zM146.9 172.2c-2.2.9-3.9 2.2-3.9 2.8 0 .5-1.3 1-3 1-2.6 0-3 .4-3 2.6 0 2.1.3 2.5 1.8 1.9 4.5-1.9 5.1-1.7 6.5 1.6 1.6 3.8 3.1 5.3 6.5 6.4 2.4.7 2.4.6 2.1-5.8-.4-6.6.8-9.7 3.7-9.7.8 0 1.4-.4 1.4-.9 0-1.7-8.2-1.7-12.1.1zM107.1 180.4c-.8 1-1.1 2.7-.7 4.6.4 2.2.2 3-.9 3-.9 0-1.2.6-.9 1.5.4.8 1 1.3 1.4 1 .5-.3 2 .6 3.4 2 3.1 3.1 4.9 2.5 3.5-1.2-.6-1.8-.6-3 .2-3.9.9-1.1.8-1.4-.3-1.4-.9 0-2.2-1.6-2.9-3.6-1.3-3.3-1.5-3.5-2.8-2z"/><path d="M202.5 181c.3.5.2 1-.4 1-1.3 0 .5 5.1 2.3 6.5.7.5 2.1 2.8 3.1 4.9 1 2.2 3.1 4.6 4.7 5.5 1.5.9 2.8 1.9 2.8 2.3 0 .4-1.4 2.3-3.1 4.2-3.3 3.9-3.1 5.6.7 5.6 1.6 0 2.8-.8 3.6-2.5.6-1.4 1.5-2.5 2-2.5s3-2 5.6-4.4c2.7-2.5 6.1-5 7.7-5.7 2.9-1.1 3-1.1.8-2-2.6-.9-2.9-2.8-1-4.8 1-1.1.7-1.2-1.3-.6-1.4.4-3.5 1.3-4.7 2.1-2.4 1.5-1.2 2-17.1-7.4-5.7-3.4-6.7-3.8-5.7-2.2zM123.8 189.3c-4.1 2.4-5 4.3-1.7 3.4 1.7-.4 2.4.2 3.6 3.1l1.6 3.7 2.1-4.5c1.1-2.5 2.7-4.9 3.5-5.4 1.1-.7 1.1-1 0-1.7-2.2-1.4-5.1-1-9.1 1.4zM166.5 190c-.3.5-1.2.7-2 .3-.9-.3-2.1 0-2.9.6-.7.6-1.5.8-1.8.5-.9-.9-7 2.6-9.1 5.2-2.4 3.1-3.8 3-7.6-.2-2.9-2.4-3.2-2.5-4.8-.8-1.7 1.6-1.7 1.8.1 2.8 1 .6 2.8 1.8 3.9 2.7l2.1 1.6-2.2 2.8c-1.2 1.5-1.9 3.1-1.6 3.6.3.5.1.9-.3.9-2.7 0-3.2 11.9-.6 12.8.7.2 4.1-2.4 7.5-5.8l6.1-6.2 4 1.6c2.2.9 4.2 1.4 4.4 1.3.1-.2-.6-2-1.6-4l-1.8-3.6 2.9-2.8c4.5-4.2 9-11.2 8.4-12.9-.6-1.6-2.2-1.9-3.1-.4zM241 190.9c-1.2.8-.7 1.3 2.3 2.6 4 1.7 4.9 4.4 1.7 5.2-2.1.6-2.6 1.8-1.2 2.7 1.7 1 8.2-1.5 10.1-4 2.2-2.8 1.8-5.9-.7-4.9-.8.3-1.8.1-2.2-.5-1-1.6-8.2-2.3-10-1.1zM181 194c0 .6 1.1 2.1 2.5 3.4 1.7 1.6 2.3 2.9 1.8 4.1-.5 1.6-.3 1.7 1.8 1 1.3-.4 4.7-1 7.4-1.4 4.5-.7 4.8-.8 2.3-1.5-1.6-.5-2.8-1.2-2.8-1.7s-.9-.9-2-.9c-1.2 0-3.8-.9-6-2-4.5-2.3-5-2.4-5-1zM188.6 208.5c-.5 1.5.6 8.6 1.9 11.7.5 1.3 0 2-2 2.8-2.3.9-2.5 1.3-1.5 2.5 1.3 1.6 4 2 4 .7 0-.9 8-3.2 11-3.2 1.1 0 2-.5 2-1 0-.6-.5-1-1.1-1-.8 0-.8-.5.1-1.5 1.1-1.3.8-1.5-1.7-1.5s-3.6-.9-6.8-5.5c-3.9-5.8-4.9-6.5-5.9-4zM254 208.3c-1.9.7-4.4 1.8-5.5 2.5-2 1.1-2 1.1 0 1.2 2.9 0 6.5 2.8 6.5 4.9 0 1.9 3 5.1 4.7 5.1.6 0 1.4-2.7 1.8-6 .5-4.6 1.1-6.1 2.6-6.5 1-.4 1.9-1.1 1.9-1.6 0-1.3-7.9-1-12 .4zM224.8 211.4c-1.6.5-2.8 1.8-3 3-.2 1.3-1.2 2.2-2.5 2.4-2.5.4-2.7.9-1.4 3.1.8 1.3 1.2 1.3 2.6.1 1.5-1.2 1.8-1.2 2.5 0 3.1 5.4 5.9 8.5 7.9 8.8 2.1.3 2.3.1 1.7-2-.3-1.2-.9-4.2-1.2-6.4-.6-3.7-.4-4.3 1.6-4.9 2.1-.7 2.1-.8.6-1.7-.9-.5-2.2-.8-2.9-.5-.7.2-1.6-.3-2.2-1.3-.8-1.3-1.5-1.4-3.7-.6zM168.3 215.4c2.6 2 2.1 2.8-1.3 2.1-2.3-.5-3-.3-3 .9 0 .9.8 1.6 1.9 1.6 2.9 0 3.5 1.8.9 2.2-4.8.9 3.1 2 8.7 1.3 5.7-.7 7-1.9 3.5-3-1.1-.4-1.8-1.1-1.5-1.6.8-1.3-5.5-4.9-8.5-4.9-2.3.1-2.4.2-.7 1.4zM242 225.9c0 1 1 3.1 2.2 4.6 1.5 2 1.8 3 1 3.3-1.7.5-1.5 1.9.5 2.6.9.4 2 .1 2.4-.6.6-.9 1.3-.9 3.4 0 1.5.7 3.7 1 4.8.6 2-.6 1.9-.8-1.3-3.6-2.8-2.3-3.2-3-2-3.8.8-.5 1.1-1.2.7-1.6-.3-.4-1.3-.2-2 .4-1 .9-2.1.6-4.7-1.3-4.1-3-5-3.1-5-.6zM204 229c-1.1 1.1-2.4 2-2.9 2-.6 0-.9.9-.8 1.9.1 1.5.5 1.7 1.8 1 2.5-1.3 2.8-1.2 2.2 1.2-.5 2-.4 2 1.8.9 1.3-.7 3.6-2.6 5.1-4.2l2.7-2.9-2.5-.9c-3.7-1.4-5.2-1.2-7.4 1zM135.2 229.6c-1.2.8-2.2 2.4-2.2 3.5 0 1.4-.9 2.1-3 2.5-3.2.7-3.5 1.1-2 3.4.8 1.2 1.3 1.3 3 .2 2.9-1.8 3.5-1.5 4.8 2.3 2.2 6 10.9 11.6 9.7 6.2-2.6-11.6-2.6-11.1 0-13.2 3.4-2.8 3.1-3.5-1-3.5-2.2 0-3.8-.6-4.1-1.5-.8-1.9-2.4-1.9-5.2.1zM170.3 231.1c-3.7 1.1-4.4 2.9-1.2 2.9 1.1 0 1.7.4 1.4 1-.3.5-1.5 1-2.6 1s-1.9.7-1.9 1.6c0 1.3.6 1.5 2.8.9 2.2-.5 2.5-.4 1.5.6-4.7 4.8 4.2 1 9.6-4l3.3-3.1h-2.5c-1.4 0-2.9-.5-3.2-1-.7-1.2-2.8-1.2-7.2.1zM152.3 237.3c-2.2.8-3 1.6-2.4 2.5.4.7 1.5 1 2.5.6 1.1-.4 2.6.2 4.1 1.6 2.9 2.8 4.2 2.1 2.4-1.2-.7-1.2-1.3-2.7-1.4-3.2 0-1.5-1.7-1.5-5.2-.3zM206.5 239c-2.5 1.7-3.2 1.8-5 .6-2.2-1.4-2.6-1.2-5.7 3.3-1.3 1.8-1.4 2.8-.6 4.7 1 2 .8 2.8-1.1 4.8l-2.3 2.4 2.1 2.1c2.4 2.4 3.1 2.6 3.1.8 0-.7.6-2.1 1.3-3.1 1.2-1.7 1.5-1.7 4.7.3 1.9 1.1 4.9 2.3 6.5 2.6 1.7.3 3.7.7 4.5.9.8.2 2.5-.1 3.7-.7 2.1-.9 1.9-1.3-4.2-7.2l-6.4-6.2 1.8-3.7c2.1-4.1 1.8-4.2-2.4-1.6zM229.5 242.2c.4 2.9 1.1 6.3 1.6 7.4.6 1.7.3 2.4-1.6 3.2-1.7.8-2.2 1.7-1.8 3.1.6 2.5 1.6 2.6 3.3.6.7-.8 2.6-1.5 4.2-1.5 1.8 0 3.1-.6 3.5-1.8.3-.9 1.5-3 2.6-4.6l2.1-2.9-2.6.6c-2.2.6-2.9.1-5.6-4.3-1.7-2.8-3.9-5-4.8-5-1.3 0-1.5.8-.9 5.2zM247.5 244c-.4 2.2-1.1 4-1.6 4s-.9.5-.9 1c0 1.2 4.8.3 6.7-1.2 1-.8.9-1.3-.2-2.5-.8-.8-1.5-2.1-1.5-2.8 0-3.3-1.9-2.1-2.5 1.5zM259 244.6c-1.5 5.4-1.6 5.8-.6 10.1.7 2.9.5 3.2-2.3 3.8-3.3.7-3.6 1.2-2.1 3.5.7 1.2 1.2 1.2 2.2.2 1.4-1.4 4.8-1.6 4.8-.2 0 1.5 6.9 8 8.5 8 2 0 1.9-4-.1-8.8-1.5-3.7-1.5-3.7 1.3-5.9l2.8-2.3h-3.3c-2.2 0-3.4-.5-3.8-1.8-1.6-5.3-4-10.6-5-10.9-.6-.2-1.7 1.7-2.4 4.3zM165.3 248.2c.2 1.5 0 2.5-.4 2.2-1.4-.8-1 4.4.6 8.3 1.9 4.5 1.9 4.3-.6 4.3-1.5 0-1.9.4-1.5 1.6.3.9.6 2.1.6 2.7 0 1.3 4.5 3.7 6.7 3.7.7 0 1.3-1.1 1.3-2.5 0-2.2.3-2.4 1.9-1.6 2.2 1.2 10.8 2.1 11.7 1.2.3-.3 1.1-.6 1.7-.6 3 0 .7-3.3-4.1-5.8-5.2-2.8-5.2-2.8-4.6-6.8.7-4.3-.3-5-3.1-1.9-1.7 1.9-1.8 1.8-6.2-2.8-4.1-4.4-4.4-4.5-4-2zM198.8 262.8c-3 1.8-3.8 3.5-1.3 2.6.8-.4 1.7.1 2.1 1 .9 2.5 2.1 1.9 3.3-1.5.6-1.8 1.1-3.4 1.1-3.5 0-.9-2.8-.2-5.2 1.4zM212 263.7c0 1 .9 3.2 1.9 5 1.1 1.7 1.7 4 1.4 5.2-.5 2 .6 2.8 2.1 1.4.4-.4 2.2-.6 4.1-.5 4 .4 5.1-.9 2.6-3.2-1.1-1-1.7-2.5-1.4-3.6.4-1.4.1-1.8-1.4-1.4-1.2.4-3.2-.5-5-2-3.6-3.1-4.3-3.2-4.3-.9zM232.3 266.1c-.7.7-.3 1.9 1.6 4 1.4 1.6 2.8 2.9 3.2 2.9.4 0 .9-1.8 1.1-4 .3-3.7.2-4-2.2-4-1.4 0-3.1.5-3.7 1.1zM276.4 269.9c-1 1-.3 2.1 1.4 2.1 1.4 0 1.7.7 1.4 3.8-.2 2.4.1 4.2 1 5 1.2.9 1.7.5 2.7-2.3.7-1.9 1.6-3.5 2.1-3.5s.7-1.2.6-2.8c-.3-2.5-.7-2.7-4.5-2.7-2.4 0-4.5.2-4.7.4zM249.5 270.7c-4.4 1.1-6 4.2-2.2 4.4 1.7.1 1.5.3-1 1.1-4.5 1.5-4.5 4.2-.1 3.2 3-.6 3.1-.5 1.9 1-.8.9-1.2 1.8-1 2.1.7.7 10.1-4.1 13.4-6.8l2.9-2.4-3.2-.8c-1.8-.3-3.2-1.1-3.2-1.6 0-.9-4-1-7.5-.2zM301.1 276.9c-.6 1.1-1.1 2.9-1.1 4.1 0 1.1-.7 2.3-1.5 2.6-1.8.7-2 2.4-.2 2.4.7 0 2.4 1.4 3.6 3.1 2.9 3.9 5.2 2.6 3.4-2-.8-2.4-.8-3.2.5-4.5 1.4-1.4 1.4-1.6-.1-2.2-.9-.3-1.7-1.4-1.7-2.4 0-2.7-1.7-3.4-2.9-1.1zM192.3 279.5c-1.8.8-3.3 1.9-3.3 2.4 0 .6-1.8 1.4-4 1.7-3.6.6-4 .9-3.4 2.8.9 2.9.9 2.9 4.3 1.2 3.9-2.1 3.9-2.1 5.5 1.6 1.9 4.6 5.3 7.8 8.1 7.8 2.1 0 2.3-.4 2-3.3-1.3-10.4-1.3-11.6.4-13.1 1-.9 2.7-1.3 4.1-1 2.3.4 2.3.4.4-.5-3.1-1.4-10.4-1.1-14.1.4zM227.5 280c-1.6 1.1-2.7 2-2.2 2.1.4.1 1.9.3 3.5.4 1.5.2 3.8.6 5.2 1.1l2.4.7-2.4-3.1c-1.4-1.7-2.7-3.1-3-3.1-.3-.1-1.8.8-3.5 1.9zM277.5 285c-2.6 1.7-3.2 1.8-5.1.5-2-1.3-2.3-1.2-3.9 2.4-1.3 3-1.4 4.3-.6 5.9.8 1.6.6 2.5-1 4.6-2.1 2.6-2.1 2.8-.3 4.1 2.7 2 3.1 1.9 4.3-1.6.6-1.7 1.4-2.9 1.8-2.7 8.3 4.2 14.9 5.6 17.5 3.6 1.5-1.2 1.2-1.7-3.7-6-3-2.5-5.9-4.8-6.5-5-.7-.2-.7-1.3.1-3.6 1.4-4.2 1-4.6-2.6-2.2zM159 285c0 .5.5 1 1 1 .6 0 1 .4 1 1 0 .5-.7 1-1.6 1-.9 0-1.4.5-1.2 1.1.2.6.8 1 1.3.9.5-.1 1.2.6 1.5 1.4.4 1.4 1.1 1.2 4.3-.9 2-1.4 3.7-2.9 3.7-3.3 0-1.1-5.1-3.2-7.7-3.2-1.3 0-2.3.4-2.3 1zM325 287.6c-2.4 2.1-3 3.2-2.6 5 .5 1.8 0 2.7-2.1 4.1-1.6.9-3 1.8-3.2 1.9-.1.2.3 1.2 1.1 2.3l1.5 2.1 2.2-2.4 2.3-2.4 4.3 4.4c4.1 4.1 9.5 6.6 12.2 5.7.7-.3.1-2.1-1.8-5.1-1.6-2.5-2.9-5-2.9-5.6 0-.5-.7-1.7-1.5-2.6-1.4-1.6-1.3-2 1.5-5l3-3.2-3.3.6c-2.1.4-4 .1-5.4-.9-2-1.4-2.4-1.3-5.3 1.1zM233.4 288.2c-.8 2.4-.7 8 .2 11 .4 1.4-.3 1.9-3.5 2.4-4.1.7-4.8 1.7-3.2 4.3.6 1 1.3 1.1 2.9.2 3.2-1.7 5.6-1.3 9.6 1.4 2 1.4 4.8 2.8 6.3 3.1 2.6.7 2.6.6 2.1-4-.5-4.1-.3-4.8 2.1-6.5l2.6-2-4.1-.6c-2.9-.5-4.6-1.5-5.7-3.4-2.4-3.7-6.4-8.1-7.6-8.1-.5 0-1.3 1-1.7 2.2zM358.9 294c-1.9 1-4.2 2.1-5.1 2.4-3.1.9-1 3.8 2.3 3.1 2.4-.5 3-.2 4.3 2.2.8 1.6 2.7 3.5 4.1 4.1l2.7 1.3-.4-6.1c-.4-5.1-.2-6.1 1.4-6.6 1-.3 1.6-.9 1.3-1.4-.9-1.4-7.1-.9-10.6 1zM299.4 296.9c1.1 2.1 1.2 3.1.3 4-2.3 2.3 2.2 1.1 5-1.4 2.6-2.3 2.7-2.4.7-2.5-1.2 0-2.7-.7-3.4-1.5-.7-.8-1.9-1.5-2.6-1.5-1.2 0-1.2.4 0 2.9zM308.9 299.6c-1.7 2.1-2.1 4-2.1 9.6 0 4.4-.2 4.8-2.4 4.8-1.3 0-2.4.5-2.4 1 0 2 3 6.9 4.9 7.9 2.1 1.2 3.1.5 3.1-2.1 0-1.7.2-1.7 3 .3 1.6 1.2 4 2.3 5.2 2.5 1.3.1 2.3.3 2.3.4 0 .1 1.5.3 3.3.5 4.4.3 4.2-1.5-.8-6.9l-4.1-4.4 1.5-3.6c1.3-3 1.3-3.6.1-3.6-.8 0-1.7.4-2 1-1.3 2.2-3.3.8-4.9-3.5-2.1-5.3-2.9-6-4.7-3.9zM376.2 302.2c-.7.7-1.2 1.8-1.2 2.5 0 .8-1.2 1.8-2.6 2.3-3.3 1.3-2.1 3.1 1.6 2.3 2.3-.4 3.1-.1 3.7 1.3 1.1 3 5.7 8.4 7.1 8.4 1.2 0 1.1-1.9-.3-11.2-.4-2.3 0-2.9 2.1-3.4 3.1-.8 2.3-1.8-1.6-2-1.6-.1-4-.4-5.3-.8-1.3-.3-2.9 0-3.5.6zM254 302.4c0 .3.6 1.5 1.3 2.6.8 1.4.9 2.3.2 2.8-.6.4-1.2 1.7-1.2 2.9-.2 2.2-.1 2.2 2.8.7 1.7-.8 3.9-2.4 5.1-3.6l2.1-2.1-3.4-1.2c-1.9-.7-4.2-1.6-5.1-2-1-.4-1.8-.4-1.8-.1zM293.8 307.4c-2.1.8-3.5 1-3.2.5.3-.5-.6-.9-2.1-.9-3.2 0-12.1 7.8-10.6 9.3.7.7 1.5.6 2.6-.3 1-.8 1.5-.9 1.5-.2 0 .6-1.3 2.1-3 3.3-2.3 1.8-2.7 2.5-1.8 3.6.9 1.1 1.3 1.1 2.7 0 3.5-3 4.1-2.9 3.5.5l-.7 3.3 4.3-4c2.3-2.2 5-5.6 6-7.5 1-1.9 2.8-4.5 3.9-5.7 3.5-3.7 2.9-4-3.1-1.9zM262.5 315c-1 3.2-1.3 12.2-.5 15.1.7 2.2.4 2.9-1.6 3.8-1.4.6-3.1 1.1-3.9 1.1-1.7 0-1.9.9-.7 2.7.5.8 1.3.9 2.2.3 2.6-1.6 5.8-1.1 6.5 1 .8 2.4 6.1 7 8.1 7 1.2 0 1.5-1.2 1.3-5.8-.3-6.5.3-7.9 3.5-9.2 1.7-.7 1.3-.9-2.1-.9-4-.1-4.3-.3-4.3-2.9-.1-3.1-5-13.5-6.7-14-.6-.2-1.4.6-1.8 1.8zM354 316c0 1.1.5 2 1.2 2 .6 0 .8.3.5.7-.4.3.3 1.7 1.4 2.9 1.7 1.8 1.9 2.7 1.1 3.7-.6.7-.7 1.8-.3 2.6 1.4 2.1 7.1-4.4 7.1-8.2 0-2.3-.3-2.8-1.1-2-.9.9-2 .6-4.4-1.3-3.9-2.9-5.5-3.1-5.5-.4zM409.1 316.2c-.1 1-.7 1.7-1.3 1.5-.8-.1-1.4 1-1.6 2.6-.3 2.6-.5 2.7-2 1.4-1.5-1.3-2-1.1-4.9 2-1.7 1.9-3.2 3.6-3.2 3.9 0 .2-.5 1.2-1 2.2-.9 1.6-1.3 1.5-5.6-.7l-4.6-2.4-2.7 2.7c-2.3 2.2-2.5 2.8-1.2 3.6.8.5 2.5 1 3.7 1 1.3 0 3.9 1.8 6.3 4.2l4 4.2 9 .1c5 0 9-.1 9-.2s-1.4-1.5-3.1-3.1l-3-2.8 3.5-7.4c3.9-8.1 4.4-11.1 2.1-13-1.3-1-1.5-.9-1.6 1.1l-.1 2.4-.8-2.5c-.5-1.7-.8-1.9-.9-.8zM347.2 331.5c.4 4.3.1 5.8-1 6.4-1 .5-1.3 1.5-.8 2.6.5 1.4.9 1.6 1.8.7.7-.7 2.2-1.2 3.3-1.2 1.2 0 3.1-1.3 4.3-3 2.7-3.6 2.8-4.4.4-3.8-1.3.4-2.4-.6-4-3.3-3.2-5.6-4.5-5-4 1.6zM289.4 332.5c-1.9 2.1-3.1 4.2-2.8 5 .8 1.9 1.8 1.9 3.5-.1 1-1.2 2.5-1.4 7.8-.9l6.6.7-3.4-2.6c-1.9-1.4-3.9-2.6-4.3-2.6-.4 0-.8-.7-.8-1.5 0-2.6-3.1-1.6-6.6 2zM367 331.6c-.6 1.4-1 3.6-1 4.8 0 1.6-.7 2.6-2.1 2.9-1.2.3-1.8 1-1.4 1.7.4.6 1.4.8 2.3.6 1.2-.4 2.3.5 3.7 3.2 1.3 2.4 2.8 3.8 4.3 4 2.2.3 2.3.1 1.7-3-.3-1.8-.9-4.1-1.1-5-.3-.9.3-2.1 1.2-2.6 1.6-.9 1.5-1-.3-1.6-1.4-.4-2.3-1.9-2.7-4.1-.8-4.2-3.2-4.6-4.6-.9zM328.8 331.6c-1.6.8-2.8 1.9-2.8 2.4 0 .6-.6 1-1.4 1-1.3 0-2.6 2.8-2.6 5.7 0 2.3 2.3 1.4 5.7-2.3 3.5-3.8 3.8-3.9 13.3-1.7 2.5.6 2.5.6.6-1.5-1-1.2-2.7-2.4-3.7-2.7-1.1-.4-1.7-1.1-1.4-1.6 1-1.4-4.7-1-7.7.7zM439.8 335.6c-.9.9-2.4 1.4-3.4 1-2.7-.8-3.8-.4-4.1 1.6-.2 1.4.4 1.8 2.5 1.8 2.7 0 2.7.1 2.7 6 0 4.8.5 6.4 2.2 8.1l2.1 2.1.7-2.3c2.7-9.4 4.3-11.5 8.5-11 .9.2.5-.7-1.2-2.3-1.6-1.5-2.5-3.2-2.2-4.1.4-.8.2-1.5-.2-1.6-.5 0-2-.3-3.4-.5-1.5-.2-3.2.3-4.2 1.2zM313.3 336.2c-.4.7-.7 3.7-.7 6.5.1 3.9-.3 5.3-1.2 5.3-.8 0-1.4.9-1.4 2.1 0 1.5.5 1.9 1.8 1.5 1.2-.4 2.7.3 4.2 1.9 2.3 2.4 6 3.4 6 1.6 0-.5-.4-2.1-1-3.6-.8-2-.7-2.7.5-3.1 2.1-.9 1.9-1.9-.7-3.1-1.5-.7-2.8-2.7-3.7-5.7-1.3-4.7-2.4-5.6-3.8-3.4zM353.8 345.2c-1.8.6-2.8 1.7-2.8 2.9 0 1.1-.9 2.1-2.4 2.5-1.6.4-2.4 1.2-2.3 2.5.1 1.2.7 1.7 1.4 1.4.7-.3 1.9-.8 2.7-1.1.9-.3 1.7.3 2.1 1.5 1.1 3.4 5.5 8.1 7.7 8.1 1.5 0 1.8-.4 1.3-1.8-.4-.9-1.1-3.6-1.5-6-.6-3.7-.4-4.6 1.1-5.5 2.5-1.6 2.4-2.2-.3-2.4-1.3-.1-2.7-.8-3.3-1.6-.7-1-1.7-1.1-3.7-.5zM389.3 346c-1.5.6-2.1 1.5-1.7 2.5.4 1 0 1.5-1 1.5-.9 0-1.6.5-1.6 1.1 0 .6.9.9 1.9.6 1.4-.3 1.8-.1 1.4.9-.3.8-.2 1.4.1 1.4 1.3 0 8.5-4 9.1-5 .3-.5 1.6-1 2.8-1 1.4 0 1.8-.3 1.1-1-1.4-1.4-9.5-2.1-12.1-1zM284.9 347.9c-1.3 1-3.4 2.1-4.7 2.5-2.9 1-1.8 2.7 1.6 2.4 2.2-.3 2.7.2 3.6 3.4.6 2 1.4 3.9 1.7 4.3.8.7 4.9-7.5 4.9-9.8 0-.9 1.1-1.9 2.5-2.3 3.7-.9 2-2.4-2.9-2.4-2.7 0-5.2.7-6.7 1.9zM422.3 348.9c-2.5 4.1.6 15 5.9 20.8l2.1 2.2-3.2 1.8c-3.6 2.1-3.7 2.5-1.5 5.8 2.1 3.2 2.6 3.1 4.8-.6l1.8-3.1 2.7 3.1c2.1 2.4 3.9 3.3 8.5 4.2 3.2.6 7 .8 8.4.4 2.5-.6 2.3-.8-4.2-7.4l-6.7-6.7 2.6-3.8c1.4-2.1 2.4-4 2.2-4.3-.3-.2-2.2.2-4.4 1l-4 1.4-4.9-5.9c-9.8-11.9-8.8-11-10.1-8.9zM330.7 349.7c-1.4.4-1.6.8-.6 1.9.8 1 .8 1.4 0 1.4-.6 0-1.1.5-1.1 1.1 0 .7.9.9 2.1.6 1.6-.4 1.8-.3.8.9-1.7 2.1.4 1.7 4.1-.9 3.2-2 4.2-4.2 2.1-4.2-.5 0-1.3-.3-1.7-.8-.8-.7-2.8-.8-5.7 0zM478 352.9c0 .4 1.6 2.3 3.5 4.2 3.4 3.4 4.5 5.9 2.4 5.9-.5 0-.7.4-.4 1 1.2 1.9 3.8 1 6.7-2.3l2.9-3.2-2.6-.3c-1.5-.2-4.9-1.7-7.6-3.2-2.7-1.6-4.9-2.6-4.9-2.1zM496.6 355.5c-1.1.8-1.5 1.5-1 1.5.6 0 1.9-.7 3-1.5 1-.8 1.5-1.4.9-1.4-.5 0-1.9.6-2.9 1.4zM378.6 355.9c-1 1.5.5 4.1 2.3 4.2 1 0 1.2.2.3.6-.8.3-.3 1.6 1.7 4.2 2.7 3.4 2.9 3.9 1.4 5.3-.9 1-1.3 2.4-.8 3.7.8 2.6 3.2 2.8 3.9.3.3-.9 1.8-2.5 3.3-3.4 2-1.2 3-2.9 3.9-6.7 1.1-5.2.6-6.3-1.6-3.6-1 1.2-1.8 1-5.7-2-4.5-3.5-7.6-4.4-8.7-2.6zM344.5 362.1c-.4 1.1-.4 3.6 0 5.5.5 3 .3 3.4-1.5 3.4-2.2 0-2.5.7-1.1 2.9.5.7 1.3 1.1 1.8.8.5-.3 1.7.3 2.7 1.4 2.2 2.6 4 2 4.4-1.5.2-1.5 1-3 1.8-3.3 1.8-.7 1.8-2.3.1-2.3-.7 0-2.3-2-3.5-4.5-2.4-4.9-3.7-5.6-4.7-2.4zM400.4 363c-2.8 1.3-3.4 1.9-1.9 2 4.8.4 11.5.7 11.5.6 0-.1-1.3-1.2-2.8-2.3-2.8-2.1-2.9-2.1-6.8-.3zM295.8 362.7c-2.2.5-2.4 2.3-.3 2.3 2.3 0 1.8 1.8-.5 2.2-3 .4-2.4 2.3.7 2.1 2-.2 2.3.1 1.5.9-4.4 4.4 3 1.5 8.6-3.3l3.3-2.9h-2.6c-1.4 0-2.5-.5-2.5-1 0-1-4.9-1.2-8.2-.3zM315.6 363.8c-1.1 1.8 1.2 9 4.4 13.8l2.8 4.2-2.1 2.1c-1.7 1.7-1.9 2.3-.9 3.3 1.1 1.1 1.7.8 3.2-1.2 1.8-2.4 1.9-2.4 3.8-.7 2.4 2.2 11.3 5 12.3 4 .4-.5-1-3.4-3.2-6.7-3.8-5.6-4.5-9.6-1.7-9.6.6 0 .9-.2.6-.5-.3-.3-1.8-.1-3.3.5-2.7 1-3.2.7-8.5-4.5-5.6-5.6-6.5-6.1-7.4-4.7zM369.1 365.8c-.7 1.2-.9 2.7-.6 3.2.4.6-.1 1.3-.9 1.6-2.2.8-2 2.7.2 2 1.1-.4 2.3.4 3.7 2.4 3 4.4 4.8 4 4-1-.4-2.6-.3-4 .4-4 .6 0 1.1-.5 1.1-1 0-.6-.7-1-1.6-1-.9 0-2.4-1-3.4-2.2l-1.7-2.2-1.2 2.2zM455.5 364.8c-1.1.4-2.1 1.5-2.3 2.4-.2 1.4.4 1.8 3.1 1.8 2.8 0 4.1.9 8.2 5.7 2.7 3.1 5 5.2 5.2 4.7.2-.6-.5-3.6-1.6-6.7-1.3-3.7-1.6-5.9-.9-6.3 3-1.9-6.8-3.2-11.7-1.6zM410.6 370.9c-2.7 1-3.1 4.5-.5 3.8 1-.3 2.2-.1 2.5.4.9 1.6 2.4 1 2.4-1 0-2.5-2.1-4-4.4-3.2zM363 377.5c-.7.8-1.8 1.5-2.5 1.5-1.7 0-4 3-5.4 6.9-1.3 4-.8 4.9 1.5 3 1.6-1.3 1.7-1.1 1.1 1.3-1 3.7 1 4.6 2.4 1.1l1.2-2.8.6 2.5c1.1 4 2.4.7 3.1-7.7.6-7.4.2-8.5-2-5.8zM404.3 380c-3.3 2-4.5 3.7-1.9 2.7.7-.3 1.8-.1 2.4.5 1.4 1.4 6.2-1.6 6.2-3.7s-2.9-1.9-6.7.5zM371.5 385.3c-.9 3.6 1 9.8 4.6 14.7l3.2 4.4-2.9 2.2-2.8 2.3 2.4 2.1c2.3 2 2.5 2 3.7.4.7-.9 1.4-2.2 1.6-2.8.3-.7 1.1-.5 2.3.6 2.6 2.2 8.5 3.7 11.2 2.7 2.9-1.1 2.8-1.8-1.3-6.6s-4.3-5.6-1.2-7.1c1.2-.6 1.6-1.1.8-1.1-1.1-.1-1.1-.4-.1-1.6 1.6-1.9.9-1.9-3.5-.1-3.2 1.4-3.6 1.3-4.9-.6-.8-1.1-3.9-4.2-7-7-5.4-4.8-5.5-4.9-6.1-2.5zM459.9 384.2c-.1.7-.1 1.6 0 2 0 .5-.3.8-.8.8s-1.1 1.3-1.4 2.9c-.4 1.7-1.4 3-2.6 3.4-1.2.3-2.1 1.2-2.1 2 0 2.3 7.5 2.9 11.1.9 3.1-1.8 3.8-3.2 1.5-3.2-.9 0-1.7-1.8-2.2-4.7-.8-4.3-3.2-7.2-3.5-4.1zM436.2 390.7c-4.8 1.7-5.1 3.7-.7 3.8 2.5 0 3.1.5 4 3.9.6 2.2 1.7 4.2 2.3 4.4 1.4.4 3.2-3.9 3.2-7.7 0-1.8.8-3.4 2.3-4.4 2.1-1.6 2.1-1.6-2.3-1.6-2.5 0-6.4.7-8.8 1.6zM480.4 391.9c-1.6 1-3.6 2.6-4.4 3.6-1.4 1.6-1.2 1.7 2 1 1.9-.4 3.9-1.1 4.4-1.6.5-.4 2.5-.1 4.4.6 1.9.8 3.7 1.5 3.9 1.5.9 0-1.9-3-4.7-5-2.6-1.8-2.8-1.8-5.6-.1zM347 394c-1.7 3.2-.5 14 2.3 19.8 1.3 2.7.5 3.5-4.5 5.1-2.5.9-3.5 1.7-3.1 2.7.6 1.7 1.7 1.8 4.6.2 1.2-.6 3.9-1.3 6-1.5 4.4-.4 10.4-3.2 13-6.1 1.1-1.2 2.7-1.8 4-1.6 1.9.4 1.9.3-.3-.6-1.3-.6-3.5-.8-4.7-.5-1.9.4-2.5-.1-3.8-3.1-1.8-4.4-10.2-16.4-11.5-16.4-.5 0-1.4.9-2 2zM406.5 395.6c-2.2.7-4.2 1.4-4.5 1.4-.3 0 .2.5 1 1 1.2.7.8 1.2-1.7 2.1-1.8.6-3 1.5-2.7 2 .3.5.9.7 1.4.4.4-.3.6.5.3 1.6-.6 2.1-.5 2.1 2.1.4 2.8-1.9 4.8-1.3 2.8.7-.7.7-1.2 1.8-1.2 2.4 0 1.8 5.2-.1 7.6-2.7 1.1-1.1 3-3.1 4.4-4.5 2-2.1 2.2-2.7 1-3.4-.8-.6-2.2-1-3-1-.9 0-2-.4-2.5-.9-.6-.6-2.5-.4-5 .5zM422.6 402.5c-3.6 2.1-3.7 4.3-.2 2.9 1.2-.5 1.8.2 2.2 2.5.9 4.3 2.2 3.9 4.5-1.4 1.1-2.5 2.4-4.5 3-4.5.6 0 .7-.5.4-1-1-1.7-5.8-1-9.9 1.5zM451.6 405.5c-2.2.8-5.4 2.6-7.2 4-1.8 1.4-3.6 2.5-4.1 2.5-1.9.1-3.3 1.8-2.7 3.3.4 1.2 1.1 1.4 3.1.6 1.3-.5 4-.9 6-.9 3.5 0 3.5.1 2.9 3.2-1.2 5.4-1.2 9.1-.1 9.5 2.3.7 9.3-5.8 12.3-11.6 2.4-4.3 4.2-6.3 6.9-7.6 3.2-1.6 3.4-1.9 1.8-2.8-3.1-1.7-14.6-1.8-18.9-.2zM482.7 410.1c-.9.6-1.7 1.7-1.7 2.5s-1.1 1.9-2.4 2.5c-1.4.7-2.2 1.7-1.9 2.5.4 1 1 1.1 2.3.4 2.9-1.5 3.5-1.2 4.8 2.2 1.7 4.4 5.5 8.9 6.8 8 .6-.4.8-3 .5-6.7-.6-5.6-.4-6.1 1.9-7.7 1.7-1.2 2-1.8 1-1.9-3.5-.2-7.5-1.1-8.5-1.9-.6-.5-1.8-.4-2.8.1zM405.3 416.2c-1.8 1.1-3.4 2.6-3.4 3.4-.1.8-.2 2-.3 2.6 0 .7-2 1.7-4.3 2.2-3.9.9-4.2 1.2-3.6 3.5.9 4.1 1.3 4.3 4.7 2.1 1.9-1.1 3.6-2 3.8-2 .3 0 1.8 2.4 3.2 5.3 2.5 4.9 7.8 11.5 9.4 11.8 5.3 1 6.1.4 4.1-3.3-.7-1.2-1.5-4.7-2-7.7-.4-3.1-.9-6.5-1.1-7.5-.2-1.4.9-2.5 4.2-4.2l4.5-2.3-3.5-.3c-1.9-.1-4.3-.2-5.2-.2-1.1 0-1.9-1-2.3-2.7-.7-3.2-3.5-3.5-8.2-.7zM95 416.5c0 .8.6 1.5 1.4 1.5 1 0 1.4 1 1.4 3-.1 1.7.1 3.2.3 3.4.2.3 1.8-.8 3.6-2.4 2.9-2.6 3-2.9 1.5-4.3-2.6-2.2-8.2-3-8.2-1.2zM139 416.7c-.8.3-2.3 1.2-3.2 2.1-1.6 1.4-1.8 1.3-1.8-.3 0-1.4-.3-1.5-1.5-.5-1 .8-1.2 1.7-.6 2.4s.6 1.7.1 2.6c-1.2 1.9-1.3 7-.2 7 .5 0 1.7-.9 2.7-2 1-1.1 2.4-2 3.2-2 .9 0 1.2-.6.9-1.8-.4-1.2.3-2.7 1.9-4.2 3.7-3.5 3-4.9-1.5-3.3zM377 416.9c-4.4 1.4-11 5.1-11 6.2 0 .7.7.8 1.8.4 3.5-1.5 4.6-1 5.7 2.7 1.7 5.9 3.1 6.7 4.9 2.5.8-2 1.6-4.6 1.8-5.9.2-1.3 1.3-3 2.6-3.9l2.3-1.6-2.3-.7c-2.6-.7-2.5-.7-5.8.3zM431.2 426.5c.3 7.2.3 7.5-1.9 7.5-2.2 0-2.4.9-1.4 4.8.1.1.9-.2 2-.7 1.4-.8 2.1-.5 3.1 1.4.7 1.4 2.1 2.5 3.1 2.5 2.2 0 4.2-3.4 3.4-5.9-.4-1.4.2-2 2.7-2.8l3.3-1.1-3-.7c-2.4-.5-3.5-1.8-5.8-6.6-4.1-8.6-6-8.1-5.5 1.6zM470.3 423.3c-1.9 2.6-3.2 6.3-3.5 9.7-.2 2.8-.8 3.6-2.6 3.8-3.2.5-2.2 2.7 1.2 2.7 1.7 0 3.1.8 3.8 2 1.7 3.1 6 7.5 7.5 7.5 1.7 0 1.6-3.5-.2-8.5-1.4-3.8-1.4-4.1.6-5.8l2.1-1.7h-2.5c-2.3 0-2.6-.5-3.2-5-.7-5.3-1.7-6.8-3.2-4.7zM339.5 430c-.3.5-.3 1.6.2 2.2.4.7.9 2.2 1 3.3.2 1 .9 2.3 1.6 2.7.6.4.9.8.4.8-1.4 0 2.2 5.7 5.4 8.4l3.1 2.6-2.1 3.5c-2.1 3.5-1.9 6.5.3 6.5.7 0 2-1.6 2.9-3.5 1.8-3.8 2.8-4.3 4.6-2.1 1.1 1.3 6.8 2.9 11.1 3.1 2.2.1 7-1.6 7-2.5 0-1.2-7.7-7.9-10.6-9.2-2.8-1.3-3-2.5-1-7.3 1.8-4.2 1.3-4.3-3-1l-3.3 2.5-3.3-2.8c-3.2-2.8-11.8-8.2-13.1-8.2-.3 0-.9.4-1.2 1zM377.6 436.6c-.9.8-1.6 2.3-1.6 3.2.1 1.5.3 1.4 1.6-.3 1.2-1.6 1.8-1.8 3.4-.7 2.2 1.4 2.5.9 1-1.9-1.3-2.3-2.4-2.4-4.4-.3zM386.9 436.7c-.2 3.3.3 4.8 2.8 8.1 2.4 3.2 2.4 3.4.7 4.8-1.8 1.4-1.8 1.4.1 3 1.8 1.4 2.1 1.3 3.4-.5 1.3-2.1 1.3-2.1 3.8-.1 2.6 2 7.7 2.7 8.7 1.2.3-.5-1-2.4-2.9-4.2-2.9-2.8-3.2-3.6-2.3-5.3.9-1.8.8-1.9-1.9-1.4-2.6.5-3.6 0-6.9-3.4-4.2-4.3-5.3-4.8-5.5-2.2zM131 439.2c-1.1 1.8-2 3.7-2 4.1 0 .5-.9.5-2 .2-1.1-.4-2-.2-2 .4 0 .6.6 1.1 1.3 1.1.7 0 2 .8 2.9 1.9 1.1 1.3 2.4 1.7 4.3 1.4 1.6-.4 2.3-.9 1.7-1.5-.5-.5-.7-2.9-.5-5.2.7-5.6-1.1-6.7-3.7-2.4zM487 438.9c0 1.1-.4 2.3-1 2.6-.5.3-1 2.2-1 4 0 2.9-.4 3.6-2.5 4.1-4.2 1-2.3 2.9 2.6 2.6 6.9-.5 12.7-4.2 8.2-5.4-1.1-.3-2.3-2.2-3-5.1-1.3-4.7-3.3-6.4-3.3-2.8zM446 438.8c0 .4.7 1.8 1.6 3.1 1.3 1.8 1.4 2.5.4 3.1-.7.5-1.4 2-1.6 3.4l-.3 2.6 3.7-1.9c4.8-2.5 9.3-7.1 6.9-7.1-.9 0-3.1-.9-4.9-2-3.4-2.1-5.8-2.6-5.8-1.2zM111.6 449.7c-.4.5-1.3.8-1.8.8-.6 0-1.3.6-1.6 1.4-.3 1 0 1.2 1.2.8 1.2-.5 1.6-.1 1.6 1.7 0 1.3.7 2.9 1.5 3.6 1.3 1 1.5.9 1.5-.8 0-1.1.6-2.7 1.4-3.4 1.1-1.1 1.1-1.7.1-3.1-1.3-1.8-2.7-2.2-3.9-1zM419 452.5c-.7.9-1.4 3.5-1.4 5.9-.1 3.8-.4 4.5-2.9 5.4-3.9 1.5-2.5 3.6 1.8 2.8 2.9-.6 3.4-.3 4.4 2.1 1.5 3.6 6.8 9.3 8.7 9.3 1.7 0 1.8-3.4.2-9.7-1-4.3-1-4.7 1.2-6.3l2.3-1.7-2.9-.7c-1.6-.4-4.5-2.5-6.5-4.7-3.2-3.5-3.8-3.7-4.9-2.4zM439.7 453.2c-.5 1.6 3 8.8 4.2 8.8.5 0 1.9 1.6 3.1 3.5 1.2 2 3.5 3.9 5.5 4.6l3.4 1.3-1.6 3c-.8 1.7-2.2 3.8-3 4.8-1.3 1.4-1.2 1.7.4 2.1 3.7 1.1 6.8.3 7.1-1.9.2-1.1 3.6-5.5 7.7-9.8 4.1-4.4 7.5-8 7.5-8.1 0-.1-1.1 0-2.5.3-2.8.5-2.9.3-1.5-3.2 1.2-3.2.4-3.3-4.3-.1-2.9 2-4.1 2.4-5.6 1.5-1.1-.5-5.2-2.2-9.3-3.6-4-1.4-7.7-3-8.2-3.5-1.4-1.2-2.4-1.1-2.9.3zM378.5 454.2c-1.2 3.1-1.2 5.3.1 9.8.8 2.5 1.4 4.6 1.4 4.8 0 .1-1.1.7-2.5 1.2-2.6 1-3.2 2.4-1.6 3.5.5.3 1.2.1 1.6-.5.3-.5 2-1 3.6-1 3.4 0 6.1-1.2 10.2-4.6l2.9-2.4h-3.5c-2.9 0-3.7-.5-4.5-2.8-.6-1.5-2.4-4.3-4-6.2-2.5-2.9-3.1-3.2-3.7-1.8zM141 457.9c0 .6.5 1.3 1.1 1.7.7.4.9 2.1.6 4-.7 4.3.6 5.1 3.1 1.9 1.1-1.4 2.8-2.5 3.7-2.5 1.5 0 1.6-.2.4-1.7-.8-.9-2.8-2.2-4.6-3-3.8-1.6-4.3-1.6-4.3-.4zM478.4 461.5c-.3.8-.2 1.9.2 2.6.5.8.3.9-.6.4-.9-.6-1.1.1-.8 2.9.3 2.8 0 3.7-1.4 4.2-1 .3-1.8 1.4-1.8 2.5 0 1.6.4 1.8 1.8 1.1.9-.5 2.6-.8 3.8-.6 1.3.2 3.1-.8 4.9-2.6 2.3-2.4 2.5-3 1.2-3-1 0-2-.8-2.3-1.8-2.4-7.2-3.8-8.9-5-5.7zM119.2 465.4c-.7 1.8-1.2 4-1.2 4.9 0 .9-.7 1.7-1.5 1.7s-1.5.7-1.5 1.5c0 1.3.8 1.5 3.8.9 4-.7 9.1-4.4 6-4.4-1.7 0-2.8-2-2.8-5 0-3.2-1.6-3-2.8.4zM155.3 466.1c-.7.7-1.3 3-1.3 5.1 0 2.6-.4 3.8-1.4 3.8-.9 0-1.2.7-.9 2 .4 1.6.8 1.8 1.9.9 1.1-.9 1.4-.8 1.4.5 0 1.6 4.6 5.3 5.5 4.4.3-.3 0-1.9-.6-3.7-.9-2.6-.9-3.5.1-4.1 1-.6.9-.9-.1-1.2-.7-.2-1.8-2.3-2.4-4.7-.8-3.4-1.2-4-2.2-3zM340 474c0 1.2 2.4 4.6 5.7 8.1l5.6 5.9-2 2.8c-1.7 2.2-1.8 3-.7 4 1 .9 1.6.6 3.1-1.8 1-1.8 2.6-3 3.9-3 2.8 0 5.4-3.1 5.3-6.1-.1-1.3.3-3.6.9-5.1l1.1-2.7-3.4 1.6c-3.1 1.5-3.6 1.5-5.2.1-2.5-2.2-7.2-4.4-11-5.3-2.9-.6-3.3-.4-3.3 1.5zM131 476.8c0 .6.6 1.3 1.3 1.6.6.3 0 .4-1.5.1-1.5-.3-3-.1-3.3.5-.3.5.1 1 .9 1 .9 0 1.3.6 1 1.5-.7 1.6 1.4 2.3 8.7 2.7 3.4.2 4.5 0 4.2-1-.3-.6-.9-1.2-1.5-1.2-.5 0-.7-.4-.3-1 .3-.5-.5-1.6-1.7-2.4-3.1-2-7.8-3.1-7.8-1.8zM377.1 478.3c-3 1.3-5.6 2.8-5.9 3.5-.2.7.2 1 1.2.6.9-.4 1.6-.1 1.6.6 0 .8 1 1.1 2.9.7 2.6-.6 3.3-.1 7.1 5.3 6.3 9.1 8.2 7.8 6-4-.9-4.8-.8-5.3 1.3-7.1l2.2-1.8H388c-3.4 0-7.6.9-10.9 2.2zM404.5 477c-.4.6-.2 1.7.5 2.4.6.8 1.3 2.4 1.5 3.6.2 1.2 1.4 3.8 2.6 5.8l2.1 3.6-2.2 1.8c-2.3 1.8-2.1 4.6.4 6.7 1 .9 1.6.5 2.6-1.9.7-1.6 1.4-3 1.7-3 .7 0 5.6 3.3 8.6 5.7 1.6 1.3 3.3 2 3.9 1.7 1.7-1 .2-9.3-2.2-12.6-1.8-2.5-2-3.4-1.1-6 1.5-4.1 1.5-4.1-1.9-2.3-3.6 1.9-4 1.9-4 .1 0-2.9-11.1-7.9-12.5-5.6zM301.7 480.6c-1.4 1.5-.6 6.5 1.3 8.4 1.1 1.1 2 2.9 2 4.1 0 1.2 1.6 3.7 3.6 5.7l3.5 3.5-3.6 3.7c-3.9 4-3.8 4.4 1.1 5.4 2.4.6 3.2.3 4-1.3 1.1-2.3 9.3-8.4 14.6-10.9 4.2-1.9 4.9-3.2 1.8-3.2-2.4 0-2.6-2.2-.5-4 2.4-2 1.1-2.2-3.8-.5l-4.6 1.6-4.5-3.3c-5.3-3.9-12.9-9.2-13.7-9.6-.3-.1-.8.1-1.2.4zM464.8 482.2c-3.2 1.1-3.6 2.4-1 3.1 1.4.4 1.4.6-.5 1.2-1.3.4-2.3 1.3-2.3 2 0 .9.8 1.1 2.3.7 2-.5 2.1-.4.7 1.3-1.4 1.7-1.3 1.8.5 1.1 3.3-1.2 12.5-7 12.5-7.8 0-.4-1.1-.8-2.5-.8s-2.5-.5-2.5-1c0-1.2-3.6-1.2-7.2.2zM94.5 485.6c1.8 1.3 1.7 1.4-1.3.8-3.8-.8-4.5 1.2-.9 2.6 1.7.7 1.8.9.5.9-1 .1-1.8.5-1.8 1 0 1.3 6.9 2 12 1.3 4.3-.7 4.4-.8 2.4-2.2-1.2-.8-2.1-2-2.1-2.5 0-1.5-4.4-3.5-7.8-3.5-2.9.1-2.9.1-1 1.6zM232.3 491c-3.2 1.3-2.9 3 .5 3 1.6 0 3.8.9 5 2 3 2.9 3.3 2.5 1.4-2-1.7-4.1-2.9-4.6-6.9-3zM447 493.6c-6.9 2.3-9.9 3.7-9.4 4.5.3.5 1.1.6 1.7.2.7-.4.6 0-.2 1-.7.9-2.4 1.7-3.7 1.7-2.8 0-4.1 1.8-1.9 2.6 1.1.5 1.3 1 .5 1.9-1.9 2.3.6 2.6 3.4.4 3.6-2.8 5.3-2 2.7 1.3-1.3 1.6-1.7 2.9-1.1 3.3 1.7 1.1 11.4-4.8 12.8-7.8.8-1.6 2.7-3.4 4.4-4.1 3-1.3 3-1.3.7-1.9-1.3-.4-3.4-.7-4.6-.7-1.4 0-2.3-.6-2.3-1.5 0-1.6-.5-1.7-3-.9zM365.6 495.8c-2.7.9-5.2 2.3-5.4 3.1-.3.8 0 1.1.7.7.6-.4 1.1-.3 1.1.2 0 1.2-2.4 2.2-5.1 2.2-2.1 0-2.6 1.5-.8 2.5.6.4.8 1.3.5 2.1-.7 1.8 1.4 1.7 3.8-.1 1.1-.8 2.6-1.5 3.4-1.5 1.2 0 1.1.5-.2 2.6-2.6 3.8-1.6 4.5 3.4 2.3 5.5-2.5 8-4.7 8-7 0-1.1 1.3-2.2 3.6-3.1 2.9-1 3.2-1.4 1.7-1.9-1-.4-3-.8-4.5-.8-1.8-.1-2.8-.6-2.8-1.6 0-1.9-1.3-1.8-7.4.3zM128.3 496.5c-3.6 1.5-4.4 3.5-1.5 3.5 1.1 0 2.2 1.1 2.8 2.7l1.1 2.8 1.2-3c.7-1.7 1.7-3.7 2.1-4.6 1.6-3.1-.6-3.6-5.7-1.4zM151.6 495.9c-.3.5.1 1.2.9 1.5 1.1.4 1.4 1.3.9 3-.8 3.3 1.5 4.4 3.5 1.7 1.2-1.5 2.2-2 3.5-1.5 1.6.6 1.7.4.7-1.4-.6-1.1-2.1-2.4-3.3-2.7-1.3-.4-3-.9-4-1.1-.9-.3-1.9-.1-2.2.5zM263.3 495.7c-3.2.6-2.9 2.1.4 2.5 2.2.2 3.1 1.1 4.4 4.8 2.6 7.2 5.8 6 5.9-2.2 0-1.8.7-2.9 2.1-3.3 5.4-1.7-5.5-3.2-12.8-1.8zM464 498.1c-.7 1.1-.9 3.2-.6 4.5.5 1.7.2 2.6-.8 3-.8.3-1.2 1.2-.9 2 .4 1.1.9 1.2 1.8.4.9-.8 1.4-.8 1.7 0 .2.6 1.6-.3 3.3-2 2.2-2.3 2.5-3 1.2-3-1.1 0-1.8-1.2-2.3-3.5-.7-4-1.8-4.4-3.4-1.4zM391.8 502.2c-3.4 1.2-3.6 2.5-.5 3.1 2 .3 1.9.5-1 1.6-1.8.7-3.3 1.9-3.3 2.7 0 1.7.1 1.7 3.6.4 2.4-.9 2.5-.9 1.4.5-.7.8-1 1.8-.8 2.1 1.4 1.4 14.8-6.5 14.8-8.7 0-.5-1.4-.9-3.1-.9-1.7 0-2.8-.4-2.4-1 .8-1.3-5.1-1.2-8.7.2zM336.5 504.3c-.8.4-1.5 1.5-1.5 2.3 0 .8-1.1 1.9-2.5 2.6-3.2 1.4-2.1 3.1 1.5 2.3 2.3-.5 3-.2 3.5 1.4 1 3.1 6.1 9 7.2 8.3.6-.5.7-2.9.3-6.7-.8-6.7-.6-7.3 2.1-8.4 1.4-.5.4-.9-3.6-1.7-3-.5-6.2-.6-7-.1zM415.7 507.2c-.9 3.9.2 13 1.8 14.8 2.2 2.4 1.9 3.7-1.5 5.7-3.4 1.9-3.6 2.9-1.5 5.8 1.5 1.9 1.6 1.8 4.6-1.4l3-3.4 4.2 3.9c2.3 2.2 4.4 4 4.6 4.1.2.1-1.1 1.6-2.8 3.2-1.8 1.7-3 3.5-2.7 3.9 1.3 2.1 12.1-3.3 17.8-9 3.2-3.1 5.8-6.1 5.8-6.6 0-.6-1.5-.6-4.1 0-3.6 1-4.2.9-5.5-1.1-.8-1.1-2.1-2.1-2.8-2.1-.7 0-2.1-.6-3.1-1.4-1.8-1.3-1.8-1.4.3-5 2.3-3.9 1.6-4.5-3.2-2.6-2.3.8-3 .4-7.7-5-2.9-3.3-5.5-6-5.9-6-.4 0-1 1-1.3 2.2zM155.3 508.3c-1.3.5-2.3 1.4-2.3 1.9 0 .4-1.1.8-2.5.8-2.6 0-3 .6-1.6 2.8.5.9 1.7 1.1 3.4.6 1.8-.4 2.7-.2 2.7.5 0 1.8 4.7 6.1 6.6 6.1 1.4 0 1.6-.8 1.2-5.5-.4-4.8-.2-5.6 1.5-6.1 1.5-.5 1.6-.8.7-1.4-1.8-1.1-7.1-1-9.7.3zM206.8 509.1c-1 .5-1.5 1.6-1.2 2.4.4.8 1.1 1.2 1.8.8.7-.4.7-.1-.1.7-1 1.1-.9 1.6.5 2.6 1.6 1.3 1.6 1.3-.1 1.4-1.9 0-1.7 2.4.9 8.8 1.3 3.2 1.3 3.2-2.1 4.7-3.9 1.6-3.9 1.4-2.5 5.1 1 2.6 1.1 2.6 3.1.8 1.1-1.1 4.4-2.4 7.2-2.9 3.9-.8 5.3-1.5 5.6-3 .2-1.1.6-2.2 1-2.5.4-.3 1.5-1.8 2.5-3.4l1.8-2.9-3 .6c-2.8.6-3.2.3-6.8-5.9-4.2-7.2-6.1-8.7-8.6-7.3zM178.4 509.8c-.6.4-1 1.5-.8 2.5.1 1.1-.6 2.1-1.9 2.6-1.9.7-1.7.9 1.7 2.1 3.8 1.2 8.8.8 13.2-1.2 1.3-.6 2.4-1.4 2.4-1.7-.1-.9-9.7-5.1-11.7-5.1-1 0-2.3.4-2.9.8zM376 512.9c0 .4 1.1 2.4 2.5 4.4 1.3 2 2 3.9 1.5 4.2-.6.4-1 1.1-1 1.7 0 2 5.5-.3 8.9-3.8 3.8-3.8 3.5-6.1-.3-2.5l-2.5 2.3-3.7-3.6c-3.6-3.5-5.4-4.4-5.4-2.7zM267.9 514.6c-1.7 2-2 3.8-2.1 9.6-.1 4.4-.3 4.8-2.4 4.8-1.3 0-2.4.5-2.4 1 0 2 3 6.9 4.9 7.9 2.1 1.2 3.1.5 3.1-2.1 0-1.8.1-1.8 2.8.2 3.6 2.6 9.2 4.3 9.2 2.7 0-.9.2-.9.8-.1 1 1.6 4.2 1.3 4.2-.3 0-.7-1.8-3.3-4-5.7l-4.1-4.4 1.5-3.6c1.3-3 1.3-3.6.1-3.6-.8 0-1.7.4-2 1-1.3 2.2-3.3.8-4.9-3.5-2.1-5.3-2.9-6-4.7-3.9zM240.5 515.2c-.8.5-1.5 1.7-1.5 2.7 0 1.1-.9 2.1-2.1 2.4-1.2.3-1.8 1-1.4 1.6.3.6 1.7.8 3 .5 1.8-.4 2.6 0 3.5 1.8 1.5 2.9 5.1 6.8 6.2 6.8 1.2 0 1-9.4-.3-10.7-.8-.8-.5-1.5.9-2.5 1.9-1.3 1.8-1.4-2.3-2.4-2.6-.6-5.1-.7-6-.2zM295.3 516.2c-1.3.6-2.3 1.5-2.3 2 0 .4-1.1.8-2.4.8-2.8 0-3.8 1-2.7 2.8.6.9 1.5 1 3.3.3 2.3-.9 2.8-.6 4.9 2.7 1.3 2 3.4 3.8 4.5 4 2 .3 2.1-.1 1.6-4.7-.4-5 1-8.7 2.9-7.5.5.3.9 0 .9-.5 0-1.4-7.8-1.3-10.7.1zM114.3 517.9c-2.6 2.2-3 3.3-.8 2.5.8-.4 1.7.1 2.1 1 .3.9.9 1.6 1.3 1.6.8 0 3.1-4.5 3.1-6 0-1.6-3.4-1.1-5.7.9zM356.5 519.8c-4.9 1-10.5 8.4-10.5 14 0 4 3.9 1.9 5.6-3 1.2-3.6 2.7-4.3 10.8-5.4l4.8-.6-2.7-1.4c-1.5-.8-3.3-1.4-4-1.4-.8 0-1.5-.6-1.7-1.3-.2-.7-1.2-1.1-2.3-.9zM462.8 526.2c-3.8 2-4.3 4.4-.8 3.3 1.3-.4 2 .2 2.9 2.5 1.3 3.8 2.2 3.4 4.6-2 1-2.2 2.4-4 3.2-4 .8 0 1.1-.5.8-1-1-1.6-6.7-1-10.7 1.2zM141.5 526c-.3.5-1.5 1-2.6 1-1 0-1.9.4-1.9 1 0 .5 1.4 1 3 1 3.3 0 3.9 1.6 1.8 5-.7 1-1 2.2-.7 2.5 1 .9 6.2-1.4 8.9-4 1.4-1.3 3.6-2.5 5-2.7 2.5-.4 2.4-.4-1-2.6-3.7-2.3-11.4-3-12.5-1.2zM376 526.4c0 .7-.7 1.9-1.5 2.6-1.1.9-1.2 1.6-.5 2.5.8.9.7 1.4-.3 1.8-1.4.5-1.6 6.4-.2 10.6.5 1.6.1 1.9-2.7 1.8-3.1-.2-3.3 0-3 2.7.4 3.4 4.8 8.6 7.4 8.6 1.3 0 1.8-.8 1.8-3v-3l4.2 3c2.3 1.7 4.8 2.8 5.5 2.5.9-.3 1.1 0 .7.7-.5.7 0 .9 1.4.6 1.2-.3 2.3-.1 2.6.6.2.6.5.2.6-.9l.1-2 .9 2c.5 1.1.9 1.5.9.8.1-.6 1-.9 2.1-.6 3.5.9 2.3-2.2-3.1-8.2l-5.2-5.6 1.7-4.1c.8-2.3 1.4-4.3 1.2-4.6-.2-.2-1.8.4-3.5 1.2-1.6.9-3.2 1.6-3.4 1.6-.2 0-1.6-2.9-3.2-6.5-2.5-6.1-4.5-8.3-4.5-5.1zM172.3 531.1c-.7 1.7-.9 3.7-.6 4.5.4 1-.2 1.7-1.6 2.1-1.1.3-2.1 1.2-2.1 2 0 1.1.9 1.2 3.8.7 4.7-.8 9.5-3.7 7-4.2-.9-.2-2-1.8-2.5-3.9-1.1-4.7-2.6-5.1-4-1.2zM188.7 529.5c-2.5 2.5-3.5 7.6-2.7 13.7.5 3.1 1.1 6.2 1.5 6.7.4.7-.7 1.1-2.9 1.1-3.4 0-6.1 2-3.8 2.8.7.2 1 .7.8 1.1-.3.4-.1 1.3.4 2 .6 1.1 1.2 1.1 3.1-.3 3-2.1 3.6-2 4.2.3.2 1.1 2.2 3.1 4.4 4.5 4.8 3.2 7.7 2.7 6.9-1.3-2-10-2-10.1.6-10.1 1.5 0 2.5-.6 2.5-1.4 0-.8-.3-1.5-.6-1.4-4.2.4-6.1-.4-6.7-3-.6-2.5-5.3-15.3-5.9-16-.1-.2-1 .4-1.8 1.3zM322.5 531.6c-1.6.8-3.8 2.3-4.9 3.2-1.8 1.6-1.7 1.7 1 2.3l2.9.5-3.3 2.1c-2.1 1.3-2.9 2.3-2.2 2.8.6.4 2.2 0 3.5-.9 3.2-2.1 3.8-2 2.5.5-2.9 5.4 3 2 8.7-4.9 2-2.6 4.2-5.1 4.8-5.5.5-.5-.7-.6-2.7-.3-2.1.2-3.8.1-3.8-.5 0-1.4-3.1-1.1-6.5.7zM302.7 534.8c-2.3 2.6-2.1 3 1.1 2.4 2.4-.5 2.5-.3 1.4 1-1.6 2 0 3.3 2.6 2.2.9-.4 2.3-.8 3.1-1 2.3-.5 4.4-5.3 2.4-5.5-.5 0-2.6-.2-4.8-.5-3.2-.4-4.4-.1-5.8 1.4zM234.7 535.6c-.9.9 1.7 5.5 4.7 8.3 3 2.8 3.2 4.3 1.1 6.1-1.2 1-1.3 1.6-.4 2.4.8.8 1.5.5 2.6-1.2.9-1.2 2.3-2.2 3.2-2.2 2.8 0 4.3-1.7 4.7-5 .2-1.7.6-3.6.9-4.1.8-1.2-.2-1.1-2.5.1-1.3.7-2.1.7-2.5 0-.8-1.3-8-5-9.8-5-.7 0-1.6.3-2 .6zM289.9 537.7c-.2 2.9.2 4.6 1.8 8.1 1.5 3 1.4 3.4-.2 4.6-1.3.9-1.5 1.5-.6 2 .6.4 1.8.2 2.6-.4 1.2-1 2-.9 4.1.4 1.4 1 3.9 1.6 5.5 1.4l3-.3-3-3.1c-2-2-2.9-3.8-2.5-4.8.4-.9.1-1.6-.6-1.6s-2.8-1.8-4.7-4c-3.9-4.4-5.2-4.9-5.4-2.3zM407.7 536.7c-.9.9-.9 4.3.1 4.3.4 0 .8 2.4.9 5.4.1 4.7-.2 5.5-2.2 6.4-1.7.8-2.2 1.7-1.8 3.1.6 2.3 3.1 2.8 3.9.8.2-.7 1.9-1.4 3.6-1.5 3.5-.3 5.8-1.8 5.8-3.7 0-.6.9-2 2-3 2.7-2.5 2.5-3.2-.7-2.8-2.4.3-3.2-.3-5.8-4.7-2.7-4.7-4.3-5.9-5.8-4.3zM347.2 540.1c-3.2 1-3.6 2.9-.6 2.9.8 0 1.2.4.9 1-.3.5-1.5 1-2.5 1-1.3 0-1.8.5-1.4 1.5.4 1.1 1.3 1.3 2.8.9 1.8-.6 1.9-.5.7 1-1.1 1.3-1.1 1.6 0 1.6 1.9-.1 5.1-1.9 9.3-5.4l3.5-3-3.7-1.3c-4.2-1.5-4.5-1.5-9-.2zM215.8 542.2c-5 2.1-6.2 3.8-2.9 3.8 1.1 0 2.1.7 2.3 1.5.2 1.2 1.6.7 6.1-2.2 4-2.5 5.4-3.9 4.5-4.5-2.1-1.3-5-.9-10 1.4zM156.6 545.8c-.4.7-.5 4.1-.1 7.5.7 6.2.6 6.3-2.2 7.7l-2.8 1.5 5.3.3c4.4.3 6.2-.2 10-2.5l4.7-2.8-3.2-.3c-2.3-.2-3.3-.9-3.7-2.6-.8-3.4-7.1-10.2-8-8.8zM275.3 547.6c-4.4 1.9-4.8 3.1-1.2 3.8 3.7.7 7.1-.9 6.7-3.1-.4-2.2-1.7-2.4-5.5-.7zM255.5 549.9c-1.1.5-2.6.6-3.2.4-.7-.3-1.3.2-1.3 1 0 .9 1 1.7 2.3 1.9 1.8.2 2.1.8 1.9 3.5-.5 4.3.7 4.1 5.1-.7 1.9-2.2 4.1-4 4.9-4 .7-.1.2-.7-1.2-1.5-2.8-1.6-5.5-1.8-8.5-.6zM217.2 551.7c-1.3 2.4-.9 9.3.7 13.7 1.4 3.6 1.5 3.2-1.9 4.4-2.1.8-2.8 1.6-2.4 2.6.5 1.2 1.1 1.3 2.4.6 1-.6 2.8-1 4-1 2.6 0 7.5-2.2 11.9-5.5l3.4-2.5h-3.6c-3.1 0-3.8-.5-5.2-3.4-.9-1.9-3.1-5.2-4.9-7.2-3.2-3.7-3.3-3.8-4.4-1.7zM322 553.1c0 .6.5 1.9 1.1 3 .7 1.5.7 2.4-.1 3.4-2.8 3.3 6.1 1.4 10.2-2.2 1.7-1.5 1.6-1.7-.8-2.9-3.3-1.7-10.4-2.6-10.4-1.3zM282 557c0 .5-.7.7-1.5.4-1.2-.5-1.5.2-1.5 2.9 0 1.9-.6 3.7-1.2 4-.7.2-1 .8-.6 1.2 1 1 8.7-1.2 10.5-3.1 1.2-1.2 1.2-1.4-.2-1.4-.8 0-2.1-1.1-2.7-2.5-1.1-2.5-2.8-3.4-2.8-1.5zM337.7 558.3c-.8 2.2 1.1 5.5 6.2 10.8 2.8 2.9 5.1 5.6 5.1 5.9 0 .4-.9 1.5-2 2.5-2.4 2.1-2.7 5-.5 4.1.9-.3 1.5 0 1.5.9 0 2.5 2 1.6 3.3-1.4 1.2-2.9 1.3-2.9 3.7-1.1 1.9 1.4 2.9 1.6 5.2.8 3.3-1.2 3.5-2.9.7-7.5-2-3.2-2.1-5.1-.3-9.7.6-1.5.3-1.5-3 0-3.5 1.7-3.7 1.7-5.8-.3-3.2-2.9-13.5-6.6-14.1-5zM294.6 562.2c-1.8 2.6-2.1 5.4-.6 6.3.6.4 1.3-.7 1.6-2.4.7-3.3 1.5-3.7 4.5-2.1 2.4 1.3 2.5-.2.1-2.3-2.5-2.3-3.8-2.1-5.6.5zM313 565c-6 1.9-12.8 5.7-12.1 6.8.4.7 1.2.8 2.1.2 2.5-1.6 4.8-1.1 5.6 1.2.6 2.1.8 3.4 1.3 7.5 0 .7.7 1.3 1.5 1.3 1.4 0 4.6-7.7 4.6-11.2 0-1 1.4-2.7 3.1-3.7 3-1.8 3-1.8.7-2.5-2.8-.7-3.6-.7-6.8.4zM371.7 566c-1.4 1.1-3 2-3.6 2-.6 0-1.1.7-1.1 1.5 0 1 .8 1.3 2.8.9 2.2-.4 3 0 4.4 2.5.9 1.7 2.4 3.1 3.3 3.1 1.3 0 1.6-.9 1.4-4.5-.2-3.5.1-4.8 1.6-6 1.9-1.3 1.7-1.4-2.1-1.5-2.7 0-5 .7-6.7 2zM258.3 565.8c-1.5.9-.5 2.5 2.5 4.1 3.1 1.6 2.8 3.7-.8 5-2.1.7-3 1.7-3 3.1 0 2 .4 2.1 4.2 1.5l4.2-.7-1.8 2.7c-3.8 5.7 1.9 4.2 11-3.1 3.7-3 7.1-5.4 7.6-5.4.4 0 .8-.5.8-1 0-.6-1.8-1-4-1-3.2 0-4-.4-4-1.8 0-1.1-1.1-2.4-2.5-3-2.9-1.3-12.3-1.6-14.2-.4zM240.4 571.9c-1.7 1.1-4 2.1-5 2.3-3.4.6-2.2 3.3 1.4 3.3 2.7 0 3.7.6 4.8 2.7 1.3 2.5 4.2 4.8 5.9 4.8.4 0 .5-2.6.4-5.7-.3-5.2 0-5.9 2-6.9 2.1-1.1 2.1-1.2.5-1.7-3.9-1-7.1-.6-10 1.2zM328.7 576.8c-1 1-1.7 2.5-1.7 3.3.1 1 .5.8 1.5-.5 1.2-1.6 1.8-1.7 2.7-.8 2 2 2.8 1.3 1.6-1.3-1.3-3-2-3.1-4.1-.7zM294.7 582.8c-2.9 1.8-3.7 3.8-1.2 2.8 1-.4 1.9.2 2.4 1.6.8 2.2.9 2.2 2.5-.9 1.9-3.9 1.9-4 .3-4.6-.7-.3-2.5.2-4 1.1zM212.6 586.2c-2.1 3-2 4.1.4 3.3 1.1-.4 2-.2 2 .4 0 .6.7 1.1 1.5 1.1 1.2 0 1.5-.9 1.3-3.5-.3-4.2-2.8-4.8-5.2-1.3zM280.5 591.7c1.2 3.2 1 3.6-2.2 4.6-4.1 1.2-4.4 3.2-.4 2.4 1.8-.4 3.1-.2 3.3.5.6 1.6 4.6 0 5.8-2.2.8-1.5.6-2.5-1.2-4.5-2.6-2.9-6.4-3.5-5.3-.8zM341 591.9c0 1.1.5 2.3 1.1 2.6.6.4.8 1.3.5 2.1-.7 1.9 2.4 1.8 5 0 1.8-1.4 1.8-1.5-.7-2.4-1.4-.6-3.3-1.8-4.2-2.7-1.6-1.5-1.7-1.5-1.7.4zM359.8 594.6c.6 1.1 2 2.8 3.1 3.8 1.6 1.5 1.8 2.2 1 3.3-1.8 2.1 2.5 1.7 4.4-.5 1.8-2 2.3-4.7.7-3.7-.5.3-3.1-.6-5.6-2.1-4-2.3-4.5-2.5-3.6-.8z"/></svg>