<svg xmlns="http://www.w3.org/2000/svg" width="700" height="700" viewBox="0 0 700 700">
	<g transform="translate(0,700) scale(0.1,-0.1)">
		<path d="M3165 6989c-2-3-18-5-35-4-16 1-30-3-30-9s-4-6-12 2-17 8-30 1c-10-6-41-11-68-12-28-1-50-5-50-8s-6-6-12-7c-7 0-33-3-58-7s-53-6-62-6c-10 0-18-4-18-8 0-5-13-7-30-6-16 1-30-2-30-7 0-6-7-8-15-4-8 3-15 1-15-5s-5-7-10-4c-6 4-18 1-27-7-14-11-16-11-8 2s6 13-8 2c-9-8-21-11-27-7-5 3-10 1-10-6s-3-9-7-6c-3 4-13 1-21-6-13-9-14-9-8 0 5 9 2 11-8 7-9-3-16-10-16-14 0-5-10-6-22-2-11 3-19 1-16-4 4-5-10-10-30-11s-38-7-40-13c-2-5-17-10-32-10-17 0-33-7-39-17-7-13-10-14-11-4 0 11-4 11-19-3-10-9-22-16-27-15-25 4-45-2-38-13 4-6 3-8-3-5-5 3-22 0-37-8-14-8-24-10-21-5 5 9-56-19-65-29-5-7-26-12-51-14-9-1-15-7-12-13 3-8-4-11-21-10-15 2-27-3-31-11-3-9-12-12-20-9s-15 1-15-4c0-6-7-10-16-10-8 0-12-4-9-10s-1-7-9-4c-9 3-16 1-16-5s-3-10-7-10c-25 4-43-3-43-17 0-8-4-12-10-9-5 3-10 0-10-7 0-10-3-9-10 2-8 12-10 12-16-3-3-9-10-14-15-11s-9 0-9-5c0-6-9-11-20-11s-23-7-26-15c-4-8-10-12-15-9s-12-2-15-10c-3-9-10-13-15-10s-12-1-15-10c-3-8-12-12-20-9-7 3-17-2-20-11s-10-13-15-10-9 0-9-7-3-10-6-6c-6 6-19-2-56-38-12-11-17-13-13-5 5 9-2 6-16-6-13-11-48-36-76-54-29-18-53-37-53-42 0-4-3-7-8-6-8 3-28-12-62-46-10-10-23-15-29-12-5 3-12-2-15-12-4-10-18-25-32-33-14-7-30-21-35-31s-14-18-20-18c-16 0-39-27-31-35 4-5-1-5-10-2-12 4-18 1-18-8 0-8-4-15-10-15-14 0-146-131-142-142 1-5-1-7-5-5-5 3-44-32-88-76-44-45-74-78-68-74 9 6 11 3 7-7-3-9-12-12-21-9-9 4-14 2-10-3 3-5-12-30-34-54-56-63-59-67-52-74 4-3 2-6-3-6-6 0-19-7-30-16-10-8-13-13-7-9 9 4 11 1 7-9-3-9-10-13-15-10s-9-2-9-10c0-9-7-16-15-16-9 0-12-6-9-15 4-8 1-15-5-15-7 0-15-8-18-17-8-20-18-34-49-68-12-13-19-27-16-30 4-4-1-11-11-16-9-6-15-14-12-20 4-5-1-9-11-9-14 0-15-2-3-17 7-10 10-15 5-11-9 8-38-25-49-54-3-10-11-18-16-18s-12-7-15-16c-5-12-3-14 7-8 7 5 5 2-5-7-9-9-14-19-11-23 4-3 0-6-7-6s-11-3-8-6c4-3-5-22-18-41s-21-39-18-44 0-9-6-9-16-13-21-30c-6-16-15-30-21-30-5 0-7-4-3-9 3-5 1-12-5-16s-8-10-5-15c3-4-3-11-12-14-15-6-15-8-3-16 10-7 11-10 3-10-7 0-13-6-13-14s-4-16-10-18c-5-1-11-13-13-26s-8-27-14-30c-6-4-9-15-7-25 1-10-4-21-12-24s-11-9-8-14-1-9-8-9c-9 0-9-3 2-10 13-8 13-10-2-10-11 0-15-5-12-14 3-8 0-17-5-21-6-3-9-11-6-16 4-5 1-9-5-9s-9-4-5-9c3-5 0-13-6-16-5-4-8-12-6-19 3-6-1-20-9-30-7-11-11-23-8-27 3-5 0-9-5-9-6 0-10-3-10-7 1-5 1-10-1-13-1-3-4-16-6-30-3-14-9-27-14-28-6-2-8-8-4-13 3-5-1-23-10-39-9-20-10-28-3-24 8 5 8 3 0-7-7-7-13-23-13-36s-4-23-8-23c-5 0-8-18-8-39 1-22-3-39-9-38-5 1-9-3-8-10 1-6-3-31-11-55-7-24-12-52-10-61 1-9-1-17-5-17-7 0-9-12-14-82-1-21-6-38-11-38s-6-3-3-7c4-3 2-12-4-20-9-10-8-13 0-13 7 0 9-5 4-12-4-7-8-18-9-24s-5-22-9-34c-5-14-3-20 3-16s8-2 5-14c-3-11-8-18-12-16-3 2-6-25-5-59 0-35-3-62-7-59-9 5-4-30 7-48 4-6 3-8-4-4-15 9-17-501-2-519 8-9 8-15 0-20-5-3-10-11-10-16 0-6 5-7 11-3 7 4 7-1-1-16-8-14-8-20-1-16 7 5 10-3 7-23-2-17 1-31 7-31 5 0 5-5-2-13-6-8-8-17-4-20 3-4 7-17 7-29 1-13 6-29 10-37 7-10 5-12-3-6-10 6-11 3-2-12 6-11 7-23 4-27-3-3 0-6 7-6 11 0 11-3 2-12s-8-16 6-32c16-19 16-19-3-13-20 7-20 7-1-8 12-9 15-15 7-15-11 0-11-3-1-15 7-8 10-22 6-30-3-8-1-15 5-15s7-4 4-10c-3-5 0-10 7-10 9 0 9-3-2-10-9-6-11-10-3-10 7 0 10-7 7-15-4-8 0-23 7-32 12-14 12-16-1-8-12 7-13 6-3-6 6-8 13-27 15-44 1-16 10-36 18-43 13-12 12-13-5-8-18 5-18 5-4-6 9-7 14-19 12-25-3-7-1-13 4-13 7 0 13-27 16-77 0-7 4-10 9-7 7 4 13-44 9-69-1-5 3-6 9-2s10-4 10-19c0-14 4-26 10-26 5 0 9-3 9-8-5-30 2-62 13-56 8 5 9 0 6-14-4-12-2-22 4-22 5 0 6-4 3-10s-1-10 6-10 9-3 6-6c-3-4-1-16 5-28 7-11 13-30 15-41 2-10 7-22 11-25 5-3 13-21 18-40 6-21 16-34 24-32 11 3 11 0 0-12-8-11-9-16-1-16 6 0 11-7 11-15s5-15 11-15c8 0 8-5-1-15-10-12-9-15 5-15 10 0 15-3 12-7-4-3 1-12 11-20 10-9 11-11 2-7-12 7-13 5-3-8 7-8 10-18 6-21-3-4-1-7 5-7 7 0 12-6 12-14s4-16 9-18c5-1 11-12 13-23 1-11 10-25 18-32s11-13 7-13c-5 0 1-12 12-26 12-15 21-33 21-42 0-8 9-23 21-33 11-9 20-20 20-23-3-20 0-26 9-21 5 3 10-3 10-14 0-12 5-21 10-21 6 0 10-7 10-15s5-15 11-15c5 0 8-4 4-9-3-5 3-16 12-23 10-7 19-20 21-28s12-23 23-32 20-21 21-25c1-12 31-57 43-65 5-4 7-8 3-8-3 0 7-14 23-31s26-36 22-42c-3-6-1-7 5-3 7 4 12 2 12-3 0-6 10-21 23-33 12-13 22-27 22-33 1-5 6-9 13-8 6 2 9-4 6-12-5-11-2-13 12-8 11 4 15 3 11-4-4-6 6-25 23-41 16-17 30-36 30-42s5-8 10-5c6 3 10 1 10-5 0-15 25-40 41-40 7 0 10-3 6-6-7-7 55-70 65-66 5 1 7-1 5-6-1-4 33-42 75-85 43-42 78-75 78-72s6 0 14-7 12-16 9-20c-2-5 1-8 6-8 6 0 19-8 29-17 37-35 67-58 74-56 4 2 10-6 13-17 4-11 10-18 15-15s15-3 22-13c17-23 45-41 33-21-5 8 7-2 26-22 19-19 40-34 47-31 7 2 11 0 10-5-2-4 1-9 6-10s12-7 17-15c5-7 14-13 21-13 7-1 12-6 11-13-2-6 3-9 11-6 7 3 16-2 20-11 3-9 10-13 16-10s14-4 19-17c6-13 10-17 11-8 0 12 3 11 11-3 6-9 14-15 20-12 5 4 9 1 9-4 0-6 7-11 15-11 9 0 18-6 21-14 3-9 13-12 22-9 9 4 14 3 10-2-9-10 21-34 43-35 8 0 24-8 35-17 11-10 26-19 34-21s18-9 22-15c4-7 8-8 8-3s9 1 19-8c11-10 25-15 32-10 7 4 10 3 6-2-3-6 3-16 15-23 16-10 19-10 12 1-8 14 36-20 48-37 5-6 8-5 8 3 0 9 10 6 32-10 18-12 41-24 52-25 11-2 24-9 28-16 4-6 8-8 8-3s10 1 22-10c19-16 20-16 9-1-12 15-12 17 3 11 9-3 16-10 16-16 0-5 4-7 9-4 5 4 11 1 13-4 2-6 13-12 26-13 12 0 22-5 22-9s9-8 20-8 20-4 20-10c0-5 7-7 15-4 8 4 15 1 15-5s7-8 15-5c8 4 15 1 15-5s5-11 11-11c5 0 7 5 3 12s7 2 24-11c17-12 39-21 49-19 11 2 17-2 15-11-3-12-1-12 14 0 12 9 15 9 10 2-5-9 2-13 23-13 17 0 31-5 31-11 0-5 5-7 10-4 6 4 24 0 40-9 17-8 27-10 24-4-5 7-2 8 7 2 15-9 20-11 45-13 8 0 12-5 9-11-4-7 3-7 20 0s24 7 20 0c-4-6 5-10 20-10 18 0 24-4 19-12-5-9-2-9 9 1 10 7 17 9 17 3s11-9 25-7c14 1 25-2 25-7s4-6 10-3c5 3 10 0 10-7 0-10 2-10 9 1 6 9 11 10 15 2 4-6 11-9 15-6 5 2 23 0 42-6s49-10 67-10c23 0 31-3 25-12-4-8-1-7 10 2s17 10 17 2c0-6 5-11 11-11s7 6 2 13c-4 6 5 4 20-6s27-13 27-7 5 8 11 4c7-4 25-7 41-6 19 0 26-3 22-11-5-9-4-9 6 0 9 8 19 9 36 0 18-8 28-7 36 1 7 7 17 12 23 12 5 0 3-5-5-10-10-7 23-10 103-10 84 0 116 3 111 11-3 6-6 58-5 116 2 84-1 104-11 98-7-3-5 0 4 8 10 8 15 17 12 20-8 7-11 77-4 77 3 0 3 36 0 80s-3 80 0 80c8 0-1 125-10 130-4 3-55 5-113 5s-103 3-101 6c2 4-9 7-24 7-45 2-76 7-91 16-10 6-12 5-7-2 4-7 2-12-3-12-6 0-11 4-11 8 0 5-10 8-22 7-13-1-33 1-44 6-13 4-26 3-34-4-10-9-11-9-6 1 4 6 4 12-1 13-4 1-20 2-34 3-14 2-31 6-37 10-7 4-12 2-12-6 0-10-2-10-9 1-5 7-20 13-35 13-14 0-26 4-26 8s-12 7-27 6c-16-1-34 5-41 11-7 7-26 13-41 13s-31 3-35 7c-3 4-16 8-28 10s-28 9-37 16c-10 8-13 9-8 0 4-7-6-5-25 5-18 9-42 18-53 19-10 2-23 9-27 16-6 9-8 8-8-3 0-12-2-12-9-2-5 8-20 15-34 15-18 2-23 5-16 14 7 8 5 10-10 6-12-3-21-1-21 4s-7 10-15 11-22 3-30 4-15 5-15 10-4 7-9 3c-5-3-16 2-24 10-9 8-25 15-37 15s-18 4-15 10c3 5-3 10-14 10s-27 7-36 16c-8 9-27 17-40 18-14 0-25 7-25 13 0 7-6 12-12 10-7-1-12 4-10 11 2 9-4 11-18 7-11-4-20-2-20 4s-7 11-15 11-15 5-15 11-5 9-12 7c-7-3-23 6-36 19s-27 21-32 18c-4-3-10 2-14 10-3 8-12 12-21 9-10-4-15-2-13 7 2 7-4 14-12 14s-14 7-12 14c1 7-2 10-8 6-5-3-10-1-10 5s-5 8-10 5c-6-3-10-1-10 5s-4 8-10 5c-5-3-10-1-10 4 0 6-7 11-15 11s-19 9-25 20-17 20-25 20-15 5-15 10c0 6-10 10-22 10-17 0-19 3-9 9s5 12-17 22c-17 7-28 17-26 21 3 4-1 8-9 8s-18 7-21 16c-3 8-10 13-14 10-5-3-23 10-39 29-17 19-33 31-37 28-3-4-6 0-6 8s-14 22-30 31c-17 9-30 24-30 33s-3 14-7 12c-10-6-53 39-46 47 4 3 1 6-6 6-16 0-42 26-34 34 4 3-1 6-10 6-8 0-19 9-22 20-4 11-11 17-17 14-8-5-9-1-5 10 4 10 3 15-3 11-6-3-10-1-10 5s-5 8-10 5c-6-4-10-3-9 2 4 21-2 33-18 33-9 0-14 3-10 6 3 3-4 16-16 29-43 44-65 73-60 79 4 3-1 6-10 6s-19 5-23 12-3 8 4 4 12-3 12 1c0 5-9 14-20 21s-20 19-20 27c0 7-10 21-22 29-12 9-19 16-15 16s-1 9-11 20c-9 12-16 23-14 26s-6 14-18 24-20 22-19 26-9 18-22 32-18 22-10 17c14-8-27 55-44 67-5 4-6 8-1 8s2 8-7 18c-10 10-14 22-10 25 3 4 0 7-7 7s-11 3-7 6c3 4-1 13-9 21-8 9-13 22-10 29 3 8 2 14-3 14-4 0-19 21-32 48-13 26-28 50-32 53-5 4-3 9 4 12 10 4 10 6 2 6-7 1-13 8-13 16s-4 15-10 15c-5 0-10 11-10 24s-5 26-10 28c-6 2-12 13-13 26 0 12-5 22-9 22s-8 11-8 24c0 14-5 28-10 31-6 4-8 11-5 16 4 5 2 9-3 9-9 0-11 9-15 55-1 14-7 25-13 25s-11 6-12 13c-2 40-22 101-36 109-7 5-7 8 3 8s10 6-4 26c-9 15-12 23-6 20 7-5 9-1 5 8-3 9-11 13-16 10-6-4-5 3 1 15 7 13 8 21 2 21s-8 7-5 15c4 8 1 15-4 15-6 0-9 9-7 20s0 20-4 20-7 10-6 23c1 12 0 26-3 31-3 6-7 19-8 30-7 76-22 165-30 178-3 4-1 8 5 8s6 13-1 37c-5 20-8 49-6 64 3 15 1 26-3 24-8-6-6 396 2 410 4 6 3 19-1 30-4 12-2 31 7 48 8 17 10 27 3 27s-8 6-2 18c5 9 8 25 7 35-2 9 1 17 6 17s9 5 9 11c0 5-4 7-10 4-6-4-6 4 0 21 6 15 9 33 6 41-3 7-2 13 2 13s8 11 9 25 4 36 5 50 5 25 9 25 5 10 1 22c-3 12-1 19 5 15 5-3 9 8 8 28-1 21 2 32 8 28s8 2 5 15c-4 12-2 22 2 22 5 0 9 8 8 18 0 21 7 47 21 85 6 16 9 33 5 38-3 5 0 9 5 9 6 0 10 6 8 13-1 6 3 11 8 10 6-1 10 16 9 37 0 23 4 38 10 37s10 6 8 16c-2 9 2 17 9 17 8 0 7 5-2 17-10 11-10 14-1 9 8-5 12 0 12 13 0 12 5 21 11 21 5 0 8 4 4 9-3 5-1 12 5 16s8 11 5 16c-4 5-1 9 5 9s8 5 5 10c-3 6-1 10 5 10s8 4 5 10c-3 5 1 20 10 33 8 13 12 27 8 30-3 4-1 7 6 7 8 0 11 6 7 16-3 8-2 12 3 9s15 11 22 30 16 35 19 35c4 0 12 18 19 40 7 25 16 38 23 34 6-4 8-3 4 4-3 6-2 13 4 17s8 11 5 16c-4 5-2 9 3 9s12 9 15 21 10 18 16 15c6-4 8 2 6 14-2 11 1 20 6 20 6 0 7 5 4 10-3 6 1 13 9 16 9 3 14 10 11 14s2 11 11 14c8 3 12 10 9 16-3 5 1 10 10 10s14 4 10 9c-3 5 1 16 9 24s12 17 9 21c-4 3 1 6 11 6 9 0 15 4 11 9-3 5 8 24 25 42 16 18 27 35 25 37-3 3 7 16 21 29s22 28 18 35c-4 6-3 8 4 4 6-3 13 3 17 14s11 17 17 14c8-5 9-1 5 10-4 10-3 15 3 11 6-3 10-1 10 5s5 8 13 4c7-5 6 0-3 11-8 10-10 16-5 13 6-4 19 0 30 8 10 8 15 14 10 14-4 0 4 11 18 24s23 27 20 30c-4 3 1 6 11 6 9 0 15 3 13 8-5 9 30 42 37 35 3-4 6-1 6 5s17 29 37 49c20 21 33 32 28 24-5-10-4-12 3-7 7 4 12 12 12 17 0 13 17 30 52 53 15 10 26 22 23 26s9 13 25 19c17 5 30 13 30 16s-5 3-12-1c-7-5-8-3-4 5 5 7 15 10 23 7s12-2 8 3c-3 5 7 19 22 30 16 11 33 25 40 31 7 5 17 10 22 10 6 0 16 9 23 20s18 20 25 20 13 5 13 10c0 6 7 10 16 10 8 0 12 5 9 10-3 6 3 10 14 10 12 0 21 7 21 16 0 8 5 12 10 9 6-3 10-1 10 5 0 7 7 9 16 6 8-3 13-2 10 3-6 8 9 18 28 19 5 0 12 4 15 9 13 17 84 66 77 52-4-8 0-5 8 5 9 11 16 16 16 10 0-5 6-2 13 6s23 21 36 28c19 11 22 11 16 0-3-7 1-4 9 6 9 11 19 17 22 13 3-3 16 3 27 14 12 11 27 17 33 15 14-5 37 17 29 27-3 4-2 5 2 2 3-3 13 1 21 8 13 10 15 9 8-3-4-9-2-8 7 2 8 10 17 15 21 11s11-2 15 5c4 8 14 14 22 16 8 1 24 7 35 14 12 6 24 8 28 5 3-3 6 0 6 7s3 10 6 7c4-3 16-1 28 5 20 12 25 13 54 16 7 1 10 7 6 14s-3 8 4 4 18-4 25 1c15 9 35 15 64 17 11 0 19 4 16 9-4 6 13 11 20 5 2-2 16 5 31 16 16 10 25 13 21 6-6-9-2-9 15 0 12 6 28 9 36 6 9-3 12-1 9 4-3 6-3 10 2 11 4 0 17 3 28 5s28 5 38 6c9 1 17 7 17 13 0 5 5 3 10-5 6-9 10-11 10-3 0 7 7 10 15 7 8-4 15-1 15 6 0 10 3 10 15 0 13-11 14-10 8 6s-4 17 8 7 18-10 27-1c7 7 12 8 12 4 0-5 8-2 17 5 11 10 14 10 9 2-4-7-2-13 3-13 6 0 11 5 11 11s6 9 14 6c7-3 25 1 40 8 14 7 25 11 25 7-3-21 3-24 16-6 10 14 14 15 15 5 0-11 4-10 16 5 8 10 13 14 9 7-4-9 3-11 24-8 17 2 35 6 41 10 5 3 10 2 10-4s7-8 15-5c8 4 13 9 11 13-2 3 48 6 112 6l117 1 3 312 2 313-116-3c-63-1-118-6-120-10-3-4-11-8-17-8-7 0-6 4 3 10 11 7 10 9-8 7-13-1-25-4-27-8z" />
		<path d="M3690 6917c0-47-4-76-10-72-5 3-3-7 5-22 9-17 11-29 5-31s-6-11 1-24c9-18 9-20-4-15-11 4-14 2-10-8 3-8 9-12 14-9s5-5 0-19c-6-16-6-28 2-36s8-11-1-11c-10 0-10-5-1-22 10-18 9-20-4-15-11 4-14 2-10-8 3-8 9-12 14-9s5-5 0-19c-5-13-6-28-3-34 4-6 5-52 2-101-3-50-1-88 3-85s14-1 22-7c12-10 15-10 15 1s2 11 10-1c8-13 10-13 10-1 0 11 3 12 11 4 6-6 18-9 25-6 8 3 14 0 14-7 0-10 3-10 15 0 9 7 15 8 15 2 0-5 18-9 40-8s40-2 40-6c0-5 10-4 21 3 13 7 19 7 15 1-3-6-2-13 4-17 5-3 10-1 10 5 0 8 6 8 20 0 11-6 20-8 20-4 0 3 7 1 15-6 10-9 15-9 15-1 0 6 5 11 10 11 6 0 10-6 10-14 0-11 7-13 29-6 22 6 33 4 42-6 6-7 15-12 19-9 5 3 12 1 15-5 5-8 11-8 20 0 8 7 14 7 17 1 1-5 15-11 30-13s30-7 34-11 18-7 31-7 23-4 23-9c0-6 9-8 20-6s20 0 20-5c0-4 8-7 18-6 9 2 20-1 23-6s12-10 20-11c8-2 20-7 28-11 10-6 12-5 7 3-4 6 8 3 28-8 28-16 36-17 46-6 6 7 10 17 9 21-4 22 2 35 13 28 6-4 8-3 5 3-3 5 1 22 8 37 8 16 13 32 10 36s2 13 10 20c7 6 11 18 8 26s0 14 7 14c6 0 8 5 5 10-3 6-1 10 5 10s9 4 5 9c-3 5-1 12 5 16s8 11 5 16c-4 5-2 9 4 9 5 0 8 9 6 19-2 11 3 22 12 25 9 4 13 14 10 26-3 11-1 18 4 14 5-3 9 7 9 21 0 16 4 24 11 20 6-4 9-1 8 6-1 8 3 27 9 42 7 16 12 35 12 43s5 14 11 14 9 6 6 14-2 16 2 18c5 2 11 13 15 24 7 23-18 59-34 49-5-3-18-1-30 5-11 5-29 15-40 20-12 6-25 8-30 5-6-4-10-2-10 3 0 6-10 8-22 4-16-4-19-2-13 8s4 12-7 7c-9-3-21 0-27 6-7 7-24 13-39 13-50 3-53 4-48 12 3 5-13 8-35 8-25-1-43 4-48 12-4 8-11 13-14 13-35-5-57 0-51 12 6 9 4 9-8-1-12-9-18-10-23-2-4 6-13 9-20 6-7-2-16-2-19 2-8 7-28 11-81 16-22 2-41 5-42 6-2 2-6 3-10 4-5 1-14 5-22 10-10 7-12 6-6-4s4-11-6-4c-14 9-50 14-106 16-18 1-33 5-33 9s-10 6-22 4c-12-3-28 1-37 8-12 9-13 9-7 0 8-14-6-18-18-6-9 10-37 13-31 4 2-4-2-8-10-8s-12 4-10 8c3 4-15 6-40 6l-45-2v-78z" />
		<path d="M4960 6663c0-7-4-13-10-13-5 0-7-7-4-15 4-8 1-15-5-15s-8-7-4-17c4-11 3-14-5-9-8 4-10 2-6-7 3-8 0-18-5-22-6-3-9-11-6-16 4-5 1-9-6-9-6 0-9-8-6-20 3-11 2-18-3-15-7 5-25-42-22-57 1-5-2-8-8-8-5 0-9-3-9-7 3-20-2-34-11-28-5 3-7 0-4-9 3-8-2-25-10-38-9-14-13-27-10-30 3-4-2-17-10-30-9-14-13-28-9-31 3-4 1-7-6-7-8 0-11-6-7-16 4-11 2-15-7-11-9 3-12-5-12-29 1-18-2-31-6-29-9 6-21-24-14-35 3-4-2-10-10-14-12-4-10-10 11-31 14-14 34-25 45-25s17-4 14-10c-3-5 3-10 14-10 12 0 21-5 21-11 0-5 5-7 10-4 6 3 13-1 16-9 3-9 10-13 16-10 5 3 16-2 24-12 9-11 13-13 9-6-3 7 10 1 31-13 20-14 41-25 46-25s6-5 2-12c-4-6-3-8 3-5 5 4 19-2 30-13 12-10 24-16 27-13 3 4 6 1 6-5 0-7 6-11 13-10 6 2 11-3 9-10-1-8 2-11 8-7s18-1 25-11c8-11 15-15 15-10s8-1 19-12c10-12 21-19 25-15 3 3 6 1 6-6s5-9 10-6c6 3 10-1 10-10s5-13 10-10c6 3 10 1 10-4 0-6 7-11 16-11 8 0 13-4 10-9-3-4 6-13 19-19 14-7 25-16 25-22s4-9 9-5c6 3 15-3 21-14 7-13 16-18 27-14 10 4 14 2 10-4-4-5 1-19 9-29 9-10 12-12 8-4s8 1 27-17c87-83 109-106 109-114 0-5 6-8 13-6 6 1 11-4 9-12-2-9 3-11 15-7 9 4 14 4 11 0-4-3 5-19 20-34 43-44 62-69 62-83 0-8 4-7 10 3 8 13 10 12 10-2 0-10 4-18 8-18s16-14 26-30c9-17 22-28 27-24 5 3 9 2 8-3-3-19 2-31 17-37 9-4 13-2 8 5-4 7-1 10 7 7s22 6 32 19c10 12 21 22 25 20 4-1 17 8 30 21 12 12 28 20 34 16 7-4 8-3 4 4s3 16 18 21c13 6 29 18 35 28s11 14 11 9 11 3 25 18c13 14 26 26 27 26 11-4 37 14 32 21-3 5 2 9 10 9s27 12 42 28c15 15 23 20 19 12s6-1 23 17c16 17 33 29 36 26 3-4 6 0 6 7s3 11 6 7c3-3 16 5 29 18 12 14 24 23 26 20 3-2 6 7 7 21 1 15-2 23-8 19-6-3-10-2-10 3 0 9-20 36-82 105-15 17-25 34-22 39 3 4-2 5-10 2-9-3-16-2-16 3 0 14-52 69-62 66-4-2-7 1-5 5 1 5-12 23-30 39-18 17-29 33-25 37 3 4-1 4-11 0-11-4-17-1-17 7s-21 34-47 59-41 36-33 25c14-18 14-19-2-6-10 7-18 20-18 27 0 13-13 19-33 15-5-1-6 3-2 9 3 5 1 10-5 10s-8 5-4 12c4 6 3 8-4 4-6-3-14-1-19 6-4 7-17 18-28 25-11 6-19 16-18 22 2 6-4 11-13 11s-12 5-8 12 3 8-5 4c-7-5-22 3-36 18s-28 27-32 27c-5 1-7 5-5 11 1 5-3 8-10 6-7-3-22 6-34 19s-29 23-38 23-15 4-14 9c2 5 1 8-2 7-5-1-23 12-60 46-10 9-21 14-24 11-3-4-6-1-6 6s-4 10-9 7-12 1-15 10c-3 8-10 13-15 10s-12 1-15 10c-4 9-9 14-12 11-4-3-13 1-21 9s-19 11-25 8c-6-4-8-3-5 2 3 6-3 16-15 23-16 10-19 10-13-1 4-7-2-2-13 12-12 14-24 22-28 18-3-4-12-2-20 5-34 31-44 37-59 37-8 0-15 5-15 11 0 5-4 7-10 4-5-3-10-1-10 6s-3 10-6 6c-4-3-13 1-21 9s-19 12-24 9c-5-4-9-2-9 3 0 9-37 25-52 23-5-1-8 4-8 10 0 5-4 8-9 5-5-4-11-1-13 6-6 16-48 18-48 1z" />
		<path d="M6369 5444c-6-8-16-11-22-7s-8 0-4-9c4-11-1-18-16-22-12-3-37-19-55-36-18-16-37-30-43-30-5 0-9-4-9-10 0-5-6-9-12-7-7 1-12-4-10-10 1-7-3-13-10-13s-25-12-41-27c-17-16-27-21-23-13 5 9 2 8-7-2-8-10-20-18-26-18-7 0-9-4-6-10 3-5-1-10-9-10-9 0-16-5-16-12 0-6-3-8-7-5-3 4-17-6-31-21s-30-27-34-27c-5 0-13-6-17-14-5-7-14-10-20-7-6 4-11 3-11-3s-9-19-21-29c-18-18-19-21-5-35 9-9 16-23 16-32s5-13 10-10c6 3 10-3 10-14 0-12 3-21 8-21 4 0 20-25 36-55 15-30 32-53 36-50 4 2 6-7 4-20-1-14 3-28 8-32 7-4 8-1 3 7-5 9-4 11 3 6 7-4 12-18 12-31s5-27 11-30c5-4 14-18 19-31 7-18 15-23 32-20 13 3 27 5 31 5 5 1 5 5 2 11-3 5 0 7 8 4s22 2 31 11c12 12 16 13 16 3 0-11 2-11 9 0 4 7 14 14 22 15 8 2 20 6 27 10 6 5 12 5 12 0 0-4 4-3 8 2 10 14 56 39 48 27-3-6 5-5 19 1 14 7 25 15 25 19 0 3 14 9 30 13 17 4 30 12 30 18 0 7 4 6 10-3s10-10 10-3c0 6 14 14 30 18 17 4 28 11 24 16-3 6 5 8 19 5 17-3 27 1 31 11 4 8 13 13 21 9 8-3 15-1 15 5s5 7 10 4c6-3 10-2 10 4s7 7 17 4c12-5 14-3 8 7s-4 12 7 7c22-8 30 3 15 21-10 13-9 14 1 8 8-5 2 11-13 34s-21 39-13 35c7-3 4 1-6 9-11 9-16 16-10 16 5 0 3 4-4 9-7 4-14 18-15 29-1 12-5 22-9 22s-8 7-8 15-4 15-9 15-12 11-15 25c-4 14-10 24-15 21-4-3-8 1-9 9s-3 22-4 29c-1 8-6 14-12 13s-12 8-14 21c-2 12-8 22-13 22s-9 7-9 15c0 9-7 18-15 21-8 4-13 10-10 14 3 5 1 11-5 15s-7 11-4 17c4 6 2 8-4 4-6-3-13 3-17 14-3 11-11 20-16 20s-8 5-6 11c3 17-30 19-44 3z" />
		<path d="M1690 5371c0-6 0-14 1-17 0-4-5-11-13-15-10-7-9-9 5-9 10 0 15-4 12-10-3-5-2-10 4-10 5 0 11-10 13-22 2-13 9-22 16-20 8 1 11-2 8-7-4-5 0-16 8-24s12-17 9-21c-4-3 2-13 13-20 10-8 16-18 12-22-5-4 1-13 12-21s20-23 20-34c0-10 5-19 10-19 6 0 10-7 10-15s5-15 11-15c5 0 7-4 4-10-3-5-1-10 5-10 7 0 10-7 6-15-3-8-2-15 3-15 4 0 19-18 34-40 14-23 22-38 17-35-6 3-7-1-4-9 3-9 10-14 14-11 8 5 16-11 22-40 1-5 8-16 15-23s13-19 13-25c0-7 9-20 20-30 12-10 18-22 15-27-3-6-2-10 3-10s12-14 16-31c3-17 10-28 16-24 5 3 12-6 16-20 3-14 10-25 16-25 5 0 6-4 3-10-3-5-1-10 4-10 6 0 11-7 11-15s5-15 11-15c5 0 8-4 4-10-3-5 3-18 15-30 11-11 17-20 13-20-3 0 2-9 11-19 10-11 15-25 10-32-4-8-3-10 4-5 11 6 16-6 13-26 0-5 4-8 9-8 6 0 10-7 10-16 0-8 4-13 9-10s12-1 15-10c4-10 2-13-7-8-6 5 0-8 14-27 14-18 32-48 39-66 8-17 18-29 22-27 4 3 8-7 8-21 0-15 4-24 10-20 6 3 10-1 10-9 0-9 4-16 10-16 5 0 9-3 8-7-1-5 3-18 10-29 6-12 8-24 5-28-3-3 2-6 13-6 15 0 16-2 5-9s-9-10 7-15c13-4 19-13 15-22-3-7 0-14 7-14 6 0 9-4 6-9s1-12 10-15 14-12 12-18c-3-7 4-21 14-32s18-26 18-33 5-13 10-13c6 0 10-9 10-20s6-20 14-20c10 0 13-7 11-20-2-11 0-18 6-15 5 4 9-1 9-9 0-9 5-16 11-16 5 0 7-4 4-10-3-5-1-10 5-10 7 0 10-6 7-13-3-8 3-20 13-27 11-8 17-17 15-21-3-3 6-18 20-33 13-14 19-26 12-26s-4-5 6-11c9-6 15-14 12-20-4-5-1-9 4-9 6 0 11-7 11-15s5-15 10-15c6 0 10-9 10-21 0-11 5-17 10-14 6 3 10-1 10-11 0-9 8-23 18-30 16-13 16-14-3-8-18 6-17 5 3-10 12-10 22-23 22-31 0-7 4-15 9-17 5-1 11-10 13-18s9-21 16-28c7-8 10-18 7-23-4-5 1-9 9-9 9 0 16-3 15-7-2-16 14-53 22-53 5 0 9-7 9-15s5-15 10-15c6 0 9-3 8-7-2-13 15-47 31-61 13-11 13-12 1-7-8 4-6-1 4-9 11-9 16-16 10-16-5 0-5-3 1-8 14-10 33-41 46-74 6-16 15-26 19-23 5 3 7-4 5-15s0-18 5-15 12-6 16-20c3-14 10-25 16-25 5 0 6-4 3-10-3-5-1-10 5-10s8-4 5-10c-3-5-1-10 5-10s15-12 21-27c14-36 18-194 5-186-5 4-6 1 0-8 11-17 12-78 2-101-5-9-3-20 2-23 8-5 8-11 0-20-6-7-7-15-3-18 10-6 10-98 0-114-4-6-4-14 1-17 9-6 8-79-2-95-4-5-3-12 1-14 10-6 9-150-1-165-3-6-3-13 2-16 9-5 8-108-2-124-3-6-3-13 1-15 7-5 9-135 3-162-1-5-1-12 0-15 7-18 4-118-4-113-5 3-6 1-2-6 12-19 15-82 4-75-6 4-7 0-1-12 10-21 9-65-1-82-3-6-3-13 2-15 4-3 7-41 6-86-1-61 2-81 13-85 9-4 12-2 7 7-5 8-2 7 9-2 14-11 17-11 17 0 0 9 3 10 8 4 6-9 22-11 47-5 6 1 14 2 18 1 51-8 78-8 83 1 4 7 9 7 14-1 5-9 14-9 34-1 17 6 25 6 21 0-8-13 11-13 37 1 15 8 19 8 14 0-4-6-3-11 3-11 5 0 13 5 16 10 4 6 10 8 15 5 17-11 75-13 88-3 8 7 12 7 12 0 0-11 49-11 67 1 6 4 13 2 15-4 2-7 12-7 31 0 18 7 26 7 22 1-8-13 11-13 37 1 15 8 19 8 14 0-4-6-3-11 3-11 5 0 13 5 16 10 4 6 10 8 15 5 17-11 80-13 86-3 4 7 9 7 14-1 5-9 14-9 34-1 17 6 25 6 21 0-8-13 11-13 37 1 15 8 19 8 14 0-4-6-3-11 3-11 5 0 13 6 17 12 5 7 8 355 9 774 0 630 2 764 14 777 7 10 10 17 7 17-4 0-1 6 6 14s18 11 23 8c6-2 5 1-2 8-10 11-7 18 13 37 14 12 22 23 19 23-4 0 3 15 14 33 11 19 17 38 13 42-4 5-1 5 6 1s12-1 12 8 5 16 11 16c5 0 7 5 4 10-3 6-1 10 5 10s8 5 5 10c-3 6 1 13 9 16 9 3 13 10 10 15s0 9 6 9 9 4 6 9 1 12 10 15c8 3 13 10 10 15-4 5 0 15 7 23 7 7 20 28 28 46 7 17 17 32 21 32 5 0 8 9 8 19 0 11 8 26 19 33 10 7 17 21 15 31-1 9 1 15 5 12 8-4 29 33 27 48 0 5 7 13 17 18 9 6 15 14 12 18-2 5 2 14 10 21s13 16 10 20 2 11 11 14c8 3 12 10 9 16-3 5-1 10 4 10 6 0 11 7 11 15s5 15 11 15 9 6 6 14 1 17 10 20c8 4 13 13 9 21-3 9 0 15 10 15 8 0 12 5 9 10-3 6 1 13 9 16 9 3 14 10 11 14s2 13 10 20c7 6 11 19 8 27-4 10-2 14 4 10 10-6 18 5 24 31 1 4 9 13 18 20 13 11 13 12 1 7-8-4-6 1 4 9 11 9 16 16 11 16-4 0-1 8 8 18 10 10 14 22 10 25-3 4-1 7 5 7 7 0 12 7 12 15s5 15 11 15c5 0 8 4 5 9s1 11 9 15c9 3 12 12 8 22-4 11-2 15 4 11s14 4 17 18c4 14 11 25 17 25s7 5 4 10c-3 6-1 10 5 10s8 5 5 10c-3 6-1 10 4 10 6 0 11 7 11 16s5 12 13 8c6-4 9-4 5 1-4 4-2 17 4 29 7 11 12 25 13 29 0 5 8 14 17 21 10 7 15 16 11 19-3 4-1 7 6 7s9 5 6 10c-3 6-1 10 5 10s9 4 6 9c-3 4 6 23 19 41 14 19 25 39 25 46 0 6 7 15 16 18s14 12 11 19c-5 14 18 39 27 29 4-3 4 1 0 11-3 10-1 17 5 17s11 8 11 19c0 10 7 24 15 31s15 19 15 26c0 8 8 14 18 14 14 0 15 2 2 10-10 6-11 10-2 10 6 0 12 7 12 15s5 15 11 15 9 7 5 15c-3 9 0 15 9 15 8 0 17 15 21 36 5 25 9 32 15 22 7-10 9-10 10 2 1 8 1 21 0 29-2 7 2 10 8 6 10-5 15 7 12 28 0 4 6 7 14 7s12 6 9 13c-2 7 5 23 16 35s18 22 14 22c-3 0 5 15 19 34 15 18 23 36 20 40-4 3-1 6 6 6s9 5 6 10c-3 6-1 10 5 10s8 4 5 10 1 10 9 10c10 0 13 7 11 21-3 12-2 19 2 15 6-6 23 18 42 62 6 12 15 22 20 22s8 9 6 20c-2 13 2 20 11 20 8 0 14 7 14 16 0 8 7 22 15 30 8 9 15 24 15 35s4 18 9 15 12 1 15 10c4 10 2 13-7 9-6-4-4 0 7 9 10 8 15 20 11 26-3 6-3 10 2 9 27-5 34 2 18 17-8 9-22 14-29 11s-19 0-25 6c-8 8-11 7-11-3 0-11-3-11-12-2-7 7-17 8-30 1s-18-6-18 3-3 9-10-2c-6-10-10-11-10-3 0 9-7 10-24 3-15-5-27-5-35 3s-11 8-11-1c0-12-58-11-79 2-6 4-11 2-11-5 0-10-3-10-12-1-7 7-17 8-30 1s-18-6-18 3-3 9-10-2c-6-10-10-11-10-3 0 9-7 10-24 3-15-5-27-5-35 3s-11 8-11-1c0-12-58-11-79 2-6 4-11 1-11-6 0-9-3-9-10 2-6 10-10 11-10 3 0-7-5-13-11-13-5 0-7 4-4 10s-1 7-9 4c-9-3-16-11-16-17s-7-2-15 9-14 14-15 6c0-10-5-10-21-1-15 8-19 8-15 0 10-15-7-14-22 1-9 9-12 9-12-2 0-13-2-13-10 0-6 10-10 11-10 3 0-7-5-13-11-13-5 0-7 4-4 10s-1 7-9 4c-9-3-16-11-16-17s-7-2-15 9-14 14-15 6c0-10-5-10-21-1-15 8-19 8-15 0 4-6 2-11-3-11-6 0-11 5-11 12 0 6-6 4-13-7-11-14-16-15-22-5-6 9-4 11 5 5 8-5 11-4 7 2-7 12-77 4-77-9 0-5-5-6-12-2-7 5-8 3-3-6 4-7 2-15-4-20-7-4-13-16-14-28 0-11-4-19-7-17-10 6-27-28-24-48 1-9-2-14-7-11s-17-12-25-33c-9-21-21-41-28-45-6-4-7-8-1-8s4-4-3-9c-7-4-14-17-15-29 0-11-5-18-9-16-4 3-8-2-8-10 0-9-5-16-11-16-5 0-7-4-4-10 3-5 1-10-5-10s-9-4-6-9-2-19-12-32c-11-13-25-38-32-56-8-17-17-30-20-28s-7-6-7-18c-1-12-7-23-13-25-5-2-8-8-4-13 3-5 0-9-5-9-6 0-11-7-11-15 0-9-6-18-14-21s-12-12-9-20-1-14-8-14-10-3-6-6c3-4 0-13-8-20-8-8-11-22-8-31 4-10 2-14-5-9-6 3-14-3-18-16s-14-29-23-36c-10-9-11-11-2-6 9 4 6-6-8-24-12-18-19-32-15-32s-1-7-12-15c-10-8-15-15-10-15 6 0 1-7-10-15s-14-15-6-15c7 0 4-8-8-20s-18-25-15-30c4-6 1-10-5-10s-8-4-5-10c3-5 1-10-4-10-6 0-11-7-11-15s-5-15-11-15c-5 0-8-4-5-9s-1-12-10-15c-9-4-14-9-10-13 3-3-2-15-11-26-13-15-14-18-3-12 8 4 4-4-9-18-14-15-20-27-15-27s1-5-8-11c-10-5-18-19-18-29 0-11-3-20-7-20-9 0-33-49-33-67 0-7-4-13-10-13-5 0-10-6-10-14s-10-22-22-32c-18-13-19-15-4-10s14 0-9-31c-16-20-22-33-14-29s6 1-3-7c-10-8-15-16-13-19 3-3-1-11-10-18-8-7-15-21-15-31 0-11-5-19-10-19-6 0-9-3-8-7 3-13-36-93-45-93-4 0-5-4-2-10 3-5 1-10-5-10s-9-4-5-9c3-5-2-16-10-25-9-8-16-19-16-23s-3-10-6-13c-4-3-3 0 0 7 4 6 0 18-8 26-17 18-20 31-4 22 6-4 5 2-2 13-7 12-17 18-23 15-5-4-7 3-4 15 4 15 2 22-7 22-8 0-12 8-10 20 2 11-1 19-7 17-6-1-12 7-14 17-1 10-8 22-14 26-7 4-11 10-11 14 3 20 0 26-9 21-6-3-7 1-4 9 3 9 1 16-6 16-6 0-9 4-6 9s-6 25-19 46c-14 20-20 33-13 30 7-4 5 0-4 8-10 8-15 17-11 20 3 4 1 7-6 7s-9 5-6 10c3 6 2 10-3 10-6 0-13 7-16 16-5 12-3 14 7 8 7-5 5-2-5 7-9 9-14 19-11 23 4 3 1 6-6 6s-9 5-6 10c3 6 2 10-4 10-5 0-12 13-16 30-4 16-14 34-23 40-14 8-14 10-2 10 9 1 6 5-7 10-15 6-23 18-23 34 0 13-5 26-10 28-6 2-12 13-13 25 0 12-4 20-7 18-4-2-14 9-24 26-9 16-15 29-11 29 3 0-1 10-10 23-8 13-12 27-8 32 5 4 2 5-4 1-8-4-13-1-13 8 0 8-5 16-10 18-6 2-12 13-13 25 0 12-4 20-7 18-4-2-12 12-19 31-7 18-17 34-22 34-6 0-8 4-4 9 3 5-1 16-9 24s-12 17-9 21c4 3 0 6-7 6s-11 3-7 6c3 4-1 13-9 21s-12 19-9 24c4 5 2 9-3 9-6 0-15 14-21 30-5 17-15 30-21 30s-10 8-8 18c2 9-4 24-14 33-10 10-17 23-16 30 2 8-2 13-9 12-7-2-10 4-7 12 4 8 1 15-4 15-11 0-28 38-24 53 1 4-3 7-10 7-6 0-8 3-5 6 4 4-2 15-14 25-14 12-16 18-7 22 10 4 10 6 1 6-7 1-13 8-13 16s-4 15-8 15c-12 0-33 49-27 61 3 5-1 6-10 3-11-5-14-2-9 10 3 9 1 16-6 16-6 0-8 5-5 10 3 6 1 10-4 10-6 0-11 6-11 13 0 8-9 22-20 32s-20 23-20 29 5 4 10-4c7-10 10-11 10-2 0 7-7 15-15 18-8 4-12 10-9 15s0 8-8 7c-7-2-12 2-11 7 1 6-10 10-23 10s-24-3-24-7c0-9-63-4-79 6-6 4-11 1-11-6 0-9-3-9-10 2-6 10-10 11-10 3 0-7-5-13-11-13-5 0-7 4-4 10s-1 7-9 4c-9-3-16-11-16-17s-7-2-15 9-14 14-15 6c0-10-5-10-21-1-15 8-19 8-15 0 10-15-7-14-22 1-9 9-12 9-12-2 0-13-2-13-10 0-6 10-10 11-10 3 0-7-5-13-11-13-5 0-7 4-4 10s-1 7-9 4c-9-3-16-11-16-17s-7-2-15 9-14 14-15 6c0-10-5-10-21-1-15 8-19 8-15 0 4-6 2-11-3-11-6 0-11 6-11 13 0 8-4 7-10-3s-10-11-10-3c0 9-7 10-24 3-15-5-27-5-35 3s-11 8-11-1c0-12-58-11-79 2-6 4-11 2-11-5 0-10-3-10-12-1-7 7-17 8-30 1s-18-6-18 3-3 9-10-2c-6-10-10-11-10-3 0 9-7 10-24 3-15-5-27-5-35 3s-11 8-11-1c0-12-58-11-79 2-6 4-11 2-11-5 0-8-4-8-15 1-10 8-15 9-15 2 0-12-59-10-79 2-6 4-11 2-11-3z" />
		<path d="M6724 4723c-9-7-21-10-25-7-5 3-9 0-9-5 0-6-3-10-7-10-20 3-34-2-28-10 3-6-3-8-14-6s-25-2-31-10c-6-7-26-16-45-19-19-4-35-11-35-17s-4-8-9-4c-5 3-12 1-16-5s-10-8-15-5-14-1-22-8c-7-7-20-12-28-12s-21-5-28-12c-8-7-17-11-22-8-4 3-13-2-20-10s-17-12-22-9c-6 4-13 3-17-2-3-5-17-15-30-22-19-11-22-11-15 0 4 7-2 5-13-5-11-9-23-14-26-10-4 3-7 1-7-5 0-7-9-12-19-12-11 0-23-5-27-12-5-7-3-8 6-3 10 6 12 4 7-8-3-10-2-17 3-17s7-9 5-20 1-20 7-20 8-9 5-20-1-18 4-14c5 3 10-1 11-8 0-7 2-17 3-23 2-5 3-16 4-23 0-7 4-11 9-9 4 3 8-9 9-26 4-49 6-57 14-57 4 0 6-15 5-34s3-34 9-33c5 1 9-10 9-25-1-16 3-28 8-28s8-8 6-17c-1-10 1-24 6-32 7-11 6-12-5-6-11 7-12 6-3-6 6-8 10-22 9-32-2-9 0-15 4-13 4 3 7-16 8-41 1-26 8-50 15-54 11-7 11-9 0-9-8 0-10-5-6-12s8-28 9-48 5-41 9-48 2-20-6-29c-9-12-10-15 0-9 7 4 14 1 18-7 6-16 20-17 43-3 11 7 12 6 6-5-7-11-6-12 6-2s18 10 29 0c10-9 11-9 6 1-4 6-3 12 1 12 5 0 15-6 22-12 10-9 12-9 7-1s8 11 44 10c27-1 50 0 50 3s36 5 79 4c44 0 78 2 76 5-1 3 8 7 21 7 13 1 22-2 19-7-3-4 5-6 17-3 13 3 31 6 41 6 9-1 16 2 13 6-2 4 27 7 65 6 68-1 69 0 69 25 0 14-4 33-9 41-6 8-7 19-3 24 13 21 9 47-6 41-11-4-12-2-4 7 13 17 13 30-1 47-10 12-9 13 3 6 12-8 12-4-2 16-10 16-13 31-8 40 6 8 4 17-3 22-9 7-9 10 0 14 10 3 9 8-2 20-8 8-13 18-10 23s1 19-4 33c-7 17-6 28 2 37 9 10 9 11 0 6-12-6-19 18-14 47 0 4-3 7-7 7s-9 10-10 23c-3 54-8 72-19 79-6 5-9 17-6 28s0 27-7 35c-6 8-9 19-5 25 3 5 2 10-4 10s-8 7-5 15c4 8 2 15-3 15s-9 10-8 23c1 12 0 27-4 32-3 6-6 12-7 15 0 3-6 18-12 33-7 16-9 33-6 39 5 7 2 8-6 3-10-6-12-4-7 8 3 9-1 23-9 32-9 9-13 22-10 30s1 15-5 15-9 6-6 14c7 17-35 17-59-1z" />
		<path d="M6711 3541c-1-9-9-12-26-9-13 3-26 0-29-6-3-7-5-6-5 2-1 7-5 11-9 8s-38-6-75-8c-37-1-67-7-67-13 0-5-4-4-9 4-8 12-15 13-34 4-18-9-28-8-37 0-10 9-11 9-6-1 6-9 1-12-16-8l-23 4v-138c0-76-3-136-6-134-4 2-9-5-12-16s-1-23 4-26c6-3 5-11-2-20-9-11-8-14 2-14 9 0 10-3 4-8-6-4-10-14-10-22 1-8-4-21-9-29-8-11-8-13 2-7 6 4 12 2 12-3 0-6-4-11-9-11-6 0-8-15-7-34 3-24-1-37-11-40-11-5-12-10-5-19 7-8 7-18 2-27-5-8-6-18-3-22 2-5-1-16-9-25-11-14-11-16 2-8 12 7 13 6 2-7-6-8-14-30-16-49s-4-38-5-42c0-5-7-5-13-1-9 5-9 2 1-9 10-13 10-17 1-17-7 0-10-6-7-14 3-7 0-19-6-25-8-8-7-11 4-11 12 0 12-2 0-9-13-8-17-19-23-68-1-7-5-13-10-13s-7-4-3-9c3-5 1-12-5-16s-8-11-5-16c4-5 2-9-4-9s-8-7-5-15c4-8 1-21-5-29-6-7-8-16-4-19 3-4 1-7-6-7s-10-4-6-9c3-5 1-12-5-16s-8-11-5-16c4-5 2-9-4-9s-8-6-5-14 1-17-5-21c-6-3-11-15-11-26 0-10-4-19-10-19-5 0-10-9-10-19 0-11-5-23-11-26-6-4-8-13-6-19 3-7-4-18-14-25-11-6-17-16-14-22 4-5 1-16-5-24s-9-19-5-25 1-9-6-8c-7 2-14-3-15-9-1-7-2-18-3-24 0-5-5-8-10-5-5 4-8-2-7-11 2-10-1-21-6-24s-11-12-12-20c-6-29-18-49-27-43-8 4-10-6-9-31 1-3-5-12-12-20-22-24-32-39-52-75-11-19-24-38-29-41-12-9 11-51 24-44 5 4 8 1 7-7-2-7 5-12 14-12 10 1 16-1 14-5-5-8 21-31 28-24 3 3 8-2 12-11 3-9 13-16 21-16s11-4 8-10c-3-5 1-10 10-10 10 0 13-5 9-12-4-6-3-8 4-4 6 3 20-4 31-16 12-12 21-18 21-13 0 4 8-2 19-13 10-12 22-22 27-22s16-9 24-19c7-11 17-18 22-15 4 3 8 0 8-6s8-14 17-17c18-7 43-26 75-55 10-10 18-15 18-11 0 3 9-4 20-17s20-19 20-14 5 1 11-8c9-17 12-17 34-2 14 9 25 22 25 29 0 8 7 21 16 29 8 9 12 16 8 16s3 9 16 20 17 20 10 20-3 9 10 20 19 20 14 20-3 4 5 9 16 18 17 27c2 10 9 23 17 29 8 5 14 12 14 15 0 19 16 49 23 45 5-3 7 4 5 15-2 12 1 20 10 20 8 0 12 8 10 19s3 22 11 25c9 3 13 10 10 15s1 11 9 14c8 4 12 15 10 27s1 20 10 20c8 0 11 7 8 20-3 12 0 20 6 20 12 0 38 57 33 73-1 4 3 7 9 7 5 0 7 5 4 10-3 6-1 10 5 10s9 4 5 9c-3 5 0 13 6 16 5 4 8 14 5 22-4 10-2 13 7 10s13 4 12 22c-1 14 8 36 19 48 15 17 16 23 5 23-11 1-11 3 2 13 9 7 15 20 13 30-1 9 2 17 7 17s9 8 9 18 6 24 13 31c10 11 9 12-2 6-9-5-5 5 7 23 12 17 22 34 21 39-4 26 2 63 11 58 6-3 7 1 4 9-3 9-2 16 4 16 5 0 8 11 7 25-2 14 0 25 5 25s7 11 5 25c-1 14 2 25 7 25 6 0 7 7 4 16-3 8-2 13 3 10s9 7 10 22c1 47 4 62 12 62 5 0 6 7 3 15-4 9 0 15 7 15 11 0 11 2 1 9-10 6-10 10 3 21 12 10 13 16 4 26-7 9-8 14-1 14 5 0 9 14 8 30-1 17 1 30 6 30 4 0 8 5 8 11 0 5-6 7-12 4-7-4-5 0 4 8 13 10 15 16 6 25-7 7-8 12-2 12s10 10 11 23c2 45 11 105 17 116 4 6 1 11-6 11-9 0-9 3 2 10 8 5 11 10 6 10s-2 8 5 17c10 11 10 14 2 9-8-4-13-1-13 9 0 9 4 13 10 10 7-4 7 3 0 20s-7 24 0 20c14-9 12 8-2 24-9 9-9 12-1 7 8-4 12 34 12 149l2 154-78-2c-43-1-83-6-90-10-6-4-15-3-18 3-5 7-11 8-19 1-7-6-17-6-26-1-8 5-21 5-31-1-12-6-19-5-22 4-4 9-6 8-6-2z" />
		<path d="M5717 1669c-20-21-42-50-49-64-6-13-14-23-17-21s-20-12-38-31c-17-18-29-33-27-33 3 0-8-12-23-26-15-15-26-31-25-38 2-6 1-8-3-4s-24-10-46-31c-21-21-41-36-44-33s-5-2-5-12c0-9-4-15-9-11-6 3-15-4-21-15s-15-18-21-15c-5 4-9 1-9-5 0-15-26-41-34-33-3 4-6 1-6-6s-5-9-10-6c-6 4-9 1-8-7 2-7-3-12-9-10-7 1-13-5-13-14 0-8-4-13-9-9-6 3-15-4-21-15s-15-18-21-15c-5 4-9 1-9-5s-4-8-10-5c-16 10-12-12 5-29 9-8 15-18 14-22 0-3 9-17 21-31s23-33 25-42c1-9 8-15 14-13 6 1 11-7 11-18s7-20 15-20 15-5 15-11c0-5-6-7-12-4-7 3-3-2 10-11 12-9 22-23 22-30 0-8 5-14 10-14 6 0 10-7 10-15s6-15 14-15c9 0 13-7 11-20-2-11 1-19 8-17 6 1 11-3 12-9 0-7 12-24 28-39 15-15 27-36 27-47s4-17 9-14 14-8 21-24c7-17 17-30 22-30 6 0 7-7 4-16-3-8-2-12 3-9 6 3 14-2 19-12 9-14 12-15 26-2 34 31 46 39 56 39 5 0 10 7 10 16 0 8 3 13 8 10 4-2 24 10 43 27 20 18 50 43 67 56s29 28 25 34c-3 6-1 7 5 3 7-4 12-2 12 5s3 10 6 6c8-7 293 276 287 286-2 4 3 7 12 7s14 4 10 9c-3 6 8 20 25 32 16 13 30 28 30 34s8 18 18 27c35 34 52 68 32 68-5 0-19 8-30 18-10 9-30 27-44 39-13 12-27 19-30 16-3-4-6-1-6 6s-4 10-8 7c-5-3-15 4-22 15-8 10-18 19-23 19-14 0-37 27-29 35 4 5-3 5-15 2-13-3-23-1-23 5 0 13-26 38-34 31-3-3-8 2-12 11-3 9-10 13-15 10s-9 2-9 11-4 14-9 10c-5-3-17 3-27 12-10 10-22 18-28 18-6 1-10 6-8 13 1 7-5 12-14 12-8 0-12 4-9 10s-1 7-9 4c-9-4-18 1-22 10-3 9-10 13-15 10s-9 2-9 11c0 11-5 15-14 12-8-3-16-2-18 2-2 5-20-9-41-30z" />
		<path d="M5e3 1044c0-8-4-13-9-9-5 3-16-1-24-9s-17-12-21-9c-3 4-6 1-6-6s-4-9-10-6c-5 3-10 2-10-4 0-11-39-27-55-22-5 1-7-1-2-5 7-8-97-65-120-67-7 0-13-4-13-9 0-4-9-8-20-8s-20-4-20-10c0-5-9-10-21-10-13 0-18-4-13-12 4-7 3-8-5-4-6 4-18 2-26-4-8-7-15-9-15-4s-7 1-14-9c-9-12-16-14-21-7-3 5-11 8-16 4-5-3-7-9-4-14s-3-7-15-5c-11 2-22-1-25-6-4-5-11-7-16-4-5 4-9 1-9-5 0-7-6-10-14-7s-16 2-18-4c-2-5-17-12-33-15s-33-11-37-17c-4-7-8-8-8-3s-6 3-14-3c-11-9-16-9-22 0-5 9-10 9-18-2-6-8-19-15-28-16-34-1-39-3-34-11 3-4-9-7-26-6-16 1-45-4-64-12s-39-12-44-9c-6 4-10 1-10-4 0-6-5-11-11-11-5 0-7 6-3 13s-1 6-12-3c-10-8-30-15-44-15s-31-7-38-15c-10-13-11-13-6 3 5 13 2 16-10 11-9-3-16-10-16-15s-12-4-26 1c-14 6-23 6-20 1s-1-12-10-15c-10-4-13-2-8 6 5 7 3 8-6 3-8-5-28-10-46-11s-37-5-42-8c-6-3-13 0-15 6-4 10-6 10-6 1-1-7-8-10-16-7-8 4-15 1-15-6 0-10-3-10-15 0s-15 10-15-1-2-11-10 1c-6 10-10 11-10 3 0-7-3-12-7-12-20 3-31-2-37-17-5-13-3-14 7-6s13 6 13-9c0-10-5-19-11-19-5 0-3-5 5-10 11-7 11-10 2-10-10 0-10-5-1-22 10-18 9-20-4-15-11 4-14 2-10-8 3-8 9-12 14-9s5-5 0-19c-7-17-6-29 2-37 10-10 8-12-6-7-16 6-16 5-1-18 10-15 12-25 5-25-6 0-11-5-11-11 0-5 4-7 10-4 6 4 7-2 1-18-5-13-6-28-3-34 11-17 2-204-9-198-5 3-6-1-3-9 3-9 9-14 13-12 4 3 7-4 7-15 0-12-5-18-13-15-9 4-9-1 2-18 13-19 13-25 3-29s-10-7 1-18c12-12 13-12 6 1-7 12-6 13 6 4 18-15 70-15 88 0 12 8 13 8 7-2-4-6-2-12 3-12 6 0 11 4 11 9 0 4 15 7 33 6 17-1 38 3 46 9 12 9 13 8 6-4s-6-13 6-3 18 10 29 0c10-10 11-9 5 2s-3 13 13 9c12-4 22-3 22 0 0 4 19 7 43 7 23-1 47 3 54 8s31 10 55 11c24 2 50 6 58 9s40 11 70 17 62 14 70 17 25 5 38 4c12-1 22 3 22 9s5 8 10 5c6-4 18-1 27 7 13 10 15 10 9 0-4-7 9-3 29 8s34 16 31 11 3-7 14-4 17 9 14 14 2 6 11 3c8-4 22-1 30 6s15 9 15 5 7-2 15 5 15 9 15 5 7-2 15 5c12 10 15 10 15-1s2-11 10 1c5 8 10 11 10 6 0-6 7-1 16 10 8 10 13 14 10 7-4-6 10-3 31 7s41 16 45 13c5-2 8 1 8 7s4 9 9 5c5-3 12-1 16 5s11 8 16 5c5-4 9-1 9 5s5 8 10 5c6-3 10-1 10 6s3 10 6 6c4-3 20 1 36 9s34 12 40 8c7-4 8-3 4 4-6 11 6 16 27 13 4 0 7 4 7 10s6 9 12 7c7-3 21 3 31 13 11 10 26 15 35 12 11-5 13-3 7 7s-4 12 8 7c10-3 17-2 17 3 0 8 32 23 55 25 6 0 9 6 8 13-2 6 4 9 12 6 8-4 15-1 15 5s6 10 13 9c6-2 11 3 9 10-1 8 2 11 7 7 11-6 51 13 63 30 5 6 8 6 8 1 0-6 6-2 13 8 7 9 22 18 34 19 12 0 19 5 17 9-3 4 2 8 10 8 9 0 16 5 16 10 0 6 10 10 21 10 17 0 19 3 10 13-6 8-8 17-4 20 3 4 1 7-5 7s-14 9-17 20-14 20-23 20c-15 0-15 2-2 10 10 6 11 10 3 10-7 0-13 7-13 15s-4 15-9 15-12 8-15 18c-4 10-21 34-39 52-17 19-26 30-19 26 11-7 11-4 0 13-7 12-19 21-26 21s-10 5-7 10c3 6 1 10-5 10-7 0-9 7-6 16 3 8 2 13-2 10-4-2-14-1-22 5-12 6-12 9-2 9s9 4-2 16c-9 8-14 20-11 25 4 5-1 9-10 9s-14 4-11 9-1 12-10 15c-8 3-12 10-9 16 3 5 1 10-4 10-6 0-11 7-11 16 0 8-4 13-9 9-5-3-12 4-16 15-6 19-50 70-60 70-3 0-5-7-5-16z" />
	</g>
</svg>